<?xml version="1.0" encoding="UTF-8" standalone="no"?>
<!DOCTYPE svg PUBLIC "-//W3C//DTD SVG 1.1//EN"
 "http://www.w3.org/Graphics/SVG/1.1/DTD/svg11.dtd">
<!-- Generated by graphviz version 2.40.1 (20161225.0304)
 -->
<!-- Title: G Pages: 1 -->
<svg width="856pt" height="1226pt"
 viewBox="0.00 0.00 856.25 1226.00" xmlns="http://www.w3.org/2000/svg" xmlns:xlink="http://www.w3.org/1999/xlink">
<g id="graph0" class="graph" transform="scale(1 1) rotate(0) translate(4 1222)">
<title>G</title>
<polygon fill="#ffffff" stroke="transparent" points="-4,4 -4,-1222 852.2503,-1222 852.2503,4 -4,4"/>
<g id="clust1" class="cluster">
<title>cluster_Global</title>
<path fill="none" stroke="#c0c0c0" d="M431.7128,-206C431.7128,-206 828.2503,-206 828.2503,-206 834.2503,-206 840.2503,-212 840.2503,-218 840.2503,-218 840.2503,-1198 840.2503,-1198 840.2503,-1204 834.2503,-1210 828.2503,-1210 828.2503,-1210 431.7128,-1210 431.7128,-1210 425.7128,-1210 419.7128,-1204 419.7128,-1198 419.7128,-1198 419.7128,-218 419.7128,-218 419.7128,-212 425.7128,-206 431.7128,-206"/>
<text text-anchor="middle" x="629.9815" y="-1197.2" font-family="Times,serif" font-size="11.00" fill="#c0c0c0">Global</text>
</g>
<g id="clust2" class="cluster">
<title>cluster_\App</title>
<path fill="none" stroke="#c0c0c0" d="M439.7128,-214C439.7128,-214 820.2503,-214 820.2503,-214 826.2503,-214 832.2503,-220 832.2503,-226 832.2503,-226 832.2503,-1170 832.2503,-1170 832.2503,-1176 826.2503,-1182 820.2503,-1182 820.2503,-1182 439.7128,-1182 439.7128,-1182 433.7128,-1182 427.7128,-1176 427.7128,-1170 427.7128,-1170 427.7128,-226 427.7128,-226 427.7128,-220 433.7128,-214 439.7128,-214"/>
<text text-anchor="middle" x="629.9815" y="-1169.2" font-family="Times,serif" font-size="11.00" fill="#c0c0c0">App</text>
</g>
<g id="clust3" class="cluster">
<title>cluster_\App\Model</title>
<path fill="none" stroke="#c0c0c0" d="M703.2503,-508C703.2503,-508 812.2503,-508 812.2503,-508 818.2503,-508 824.2503,-514 824.2503,-520 824.2503,-520 824.2503,-1008 824.2503,-1008 824.2503,-1014 818.2503,-1020 812.2503,-1020 812.2503,-1020 703.2503,-1020 703.2503,-1020 697.2503,-1020 691.2503,-1014 691.2503,-1008 691.2503,-1008 691.2503,-520 691.2503,-520 691.2503,-514 697.2503,-508 703.2503,-508"/>
<text text-anchor="middle" x="757.7503" y="-1007.2" font-family="Times,serif" font-size="11.00" fill="#c0c0c0">Model</text>
</g>
<g id="clust4" class="cluster">
<title>cluster_\App\Model\Table</title>
<path fill="none" stroke="#c0c0c0" d="M711.2503,-758C711.2503,-758 804.2503,-758 804.2503,-758 810.2503,-758 816.2503,-764 816.2503,-770 816.2503,-770 816.2503,-980 816.2503,-980 816.2503,-986 810.2503,-992 804.2503,-992 804.2503,-992 711.2503,-992 711.2503,-992 705.2503,-992 699.2503,-986 699.2503,-980 699.2503,-980 699.2503,-770 699.2503,-770 699.2503,-764 705.2503,-758 711.2503,-758"/>
<text text-anchor="middle" x="757.7503" y="-979.2" font-family="Times,serif" font-size="11.00" fill="#c0c0c0">Table</text>
</g>
<g id="clust5" class="cluster">
<title>cluster_\App\Model\Entity</title>
<path fill="none" stroke="#c0c0c0" d="M729.2503,-516C729.2503,-516 786.2503,-516 786.2503,-516 792.2503,-516 798.2503,-522 798.2503,-528 798.2503,-528 798.2503,-738 798.2503,-738 798.2503,-744 792.2503,-750 786.2503,-750 786.2503,-750 729.2503,-750 729.2503,-750 723.2503,-750 717.2503,-744 717.2503,-738 717.2503,-738 717.2503,-528 717.2503,-528 717.2503,-522 723.2503,-516 729.2503,-516"/>
<text text-anchor="middle" x="757.7503" y="-737.2" font-family="Times,serif" font-size="11.00" fill="#c0c0c0">Entity</text>
</g>
<g id="clust6" class="cluster">
<title>cluster_\App\Controller</title>
<path fill="none" stroke="#c0c0c0" d="M447.7128,-1028C447.7128,-1028 807.2503,-1028 807.2503,-1028 813.2503,-1028 819.2503,-1034 819.2503,-1040 819.2503,-1040 819.2503,-1142 819.2503,-1142 819.2503,-1148 813.2503,-1154 807.2503,-1154 807.2503,-1154 447.7128,-1154 447.7128,-1154 441.7128,-1154 435.7128,-1148 435.7128,-1142 435.7128,-1142 435.7128,-1040 435.7128,-1040 435.7128,-1034 441.7128,-1028 447.7128,-1028"/>
<text text-anchor="middle" x="627.4815" y="-1141.2" font-family="Times,serif" font-size="11.00" fill="#c0c0c0">Controller</text>
</g>
<g id="clust7" class="cluster">
<title>cluster_\App\Console</title>
<path fill="none" stroke="#c0c0c0" d="M726.2503,-428C726.2503,-428 789.2503,-428 789.2503,-428 795.2503,-428 801.2503,-434 801.2503,-440 801.2503,-440 801.2503,-488 801.2503,-488 801.2503,-494 795.2503,-500 789.2503,-500 789.2503,-500 726.2503,-500 726.2503,-500 720.2503,-500 714.2503,-494 714.2503,-488 714.2503,-488 714.2503,-440 714.2503,-440 714.2503,-434 720.2503,-428 726.2503,-428"/>
<text text-anchor="middle" x="757.7503" y="-487.2" font-family="Times,serif" font-size="11.00" fill="#c0c0c0">Console</text>
</g>
<g id="clust8" class="cluster">
<title>cluster_\App\View</title>
<path fill="none" stroke="#c0c0c0" d="M465.7128,-348C465.7128,-348 786.2503,-348 786.2503,-348 792.2503,-348 798.2503,-354 798.2503,-360 798.2503,-360 798.2503,-408 798.2503,-408 798.2503,-414 792.2503,-420 786.2503,-420 786.2503,-420 465.7128,-420 465.7128,-420 459.7128,-420 453.7128,-414 453.7128,-408 453.7128,-408 453.7128,-360 453.7128,-360 453.7128,-354 459.7128,-348 465.7128,-348"/>
<text text-anchor="middle" x="625.9815" y="-407.2" font-family="Times,serif" font-size="11.00" fill="#c0c0c0">View</text>
</g>
<g id="clust9" class="cluster">
<title>cluster_\App\Shell</title>
<path fill="none" stroke="#c0c0c0" d="M717.2503,-268C717.2503,-268 798.2503,-268 798.2503,-268 804.2503,-268 810.2503,-274 810.2503,-280 810.2503,-280 810.2503,-328 810.2503,-328 810.2503,-334 804.2503,-340 798.2503,-340 798.2503,-340 717.2503,-340 717.2503,-340 711.2503,-340 705.2503,-334 705.2503,-328 705.2503,-328 705.2503,-280 705.2503,-280 705.2503,-274 711.2503,-268 717.2503,-268"/>
<text text-anchor="middle" x="757.7503" y="-327.2" font-family="Times,serif" font-size="11.00" fill="#c0c0c0">Shell</text>
</g>
<!-- \\App\\Model\\Table\\PagesTable -->
<g id="node1" class="node">
<title>\\App\\Model\\Table\\PagesTable</title>
<polygon fill="none" stroke="#000000" points="796.2503,-964 719.2503,-964 719.2503,-928 796.2503,-928 796.2503,-964"/>
<text text-anchor="middle" x="757.7503" y="-943.2" font-family="Courier,monospace" font-size="11.00" fill="#000000">PagesTable</text>
</g>
<!-- \\Cake\\ORM\\Table -->
<g id="node17" class="node">
<title>\\Cake\\ORM\\Table</title>
<ellipse fill="none" stroke="#000000" cx="491.2128" cy="-180" rx="92.8835" ry="18"/>
<text text-anchor="middle" x="491.2128" y="-176.3" font-family="Times,serif" font-size="14.00" fill="#c0c0c0">\Cake\ORM\Table</text>
</g>
<!-- \\App\\Model\\Table\\PagesTable&#45;&gt;\\Cake\\ORM\\Table -->
<g id="edge1" class="edge">
<title>\\App\\Model\\Table\\PagesTable&#45;&gt;\\Cake\\ORM\\Table</title>
<path fill="none" stroke="#000000" d="M718.9657,-938.1131C708.4252,-934.1034 698.0553,-928.07 691.2503,-919 614.1624,-816.2551 683.0098,-461.9938 632.2503,-344 607.3149,-286.0361 554.352,-233.5096 520.8966,-204.2543"/>
<polygon fill="none" stroke="#000000" points="523.1141,-201.545 513.251,-197.6761 518.5486,-206.8513 523.1141,-201.545"/>
</g>
<!-- \\App\\Model\\Table\\ContentsTable -->
<g id="node2" class="node">
<title>\\App\\Model\\Table\\ContentsTable</title>
<polygon fill="none" stroke="#000000" points="805.2503,-910 710.2503,-910 710.2503,-874 805.2503,-874 805.2503,-910"/>
<text text-anchor="middle" x="757.7503" y="-889.2" font-family="Courier,monospace" font-size="11.00" fill="#000000">ContentsTable</text>
</g>
<!-- \\App\\Model\\Table\\ContentsTable&#45;&gt;\\Cake\\ORM\\Table -->
<g id="edge2" class="edge">
<title>\\App\\Model\\Table\\ContentsTable&#45;&gt;\\Cake\\ORM\\Table</title>
<path fill="none" stroke="#000000" d="M710.1087,-880.1142C702.8413,-876.3696 696.145,-871.4529 691.2503,-865 550.4172,-679.3347 725.4637,-557.581 632.2503,-344 607.0106,-286.168 554.1428,-233.6002 520.7888,-204.301"/>
<polygon fill="none" stroke="#000000" points="523.0214,-201.6045 513.1674,-197.7122 518.4434,-206.9 523.0214,-201.6045"/>
</g>
<!-- \\App\\Model\\Table\\MapPointsTable -->
<g id="node3" class="node">
<title>\\App\\Model\\Table\\MapPointsTable</title>
<polygon fill="none" stroke="#000000" points="808.2503,-856 707.2503,-856 707.2503,-820 808.2503,-820 808.2503,-856"/>
<text text-anchor="middle" x="757.7503" y="-835.2" font-family="Courier,monospace" font-size="11.00" fill="#000000">MapPointsTable</text>
</g>
<!-- \\App\\Model\\Table\\MapPointsTable&#45;&gt;\\Cake\\ORM\\Table -->
<g id="edge3" class="edge">
<title>\\App\\Model\\Table\\MapPointsTable&#45;&gt;\\Cake\\ORM\\Table</title>
<path fill="none" stroke="#000000" d="M707.1916,-824.4403C701.0774,-820.9359 695.5031,-816.5321 691.2503,-811 563.7455,-645.1403 717.1675,-535.1962 632.2503,-344 606.5673,-286.1733 553.5958,-233.4231 520.3825,-204.1171"/>
<polygon fill="none" stroke="#000000" points="522.6445,-201.4458 512.7997,-197.5302 518.054,-206.7305 522.6445,-201.4458"/>
</g>
<!-- \\App\\Model\\Table\\UsersTable -->
<g id="node4" class="node">
<title>\\App\\Model\\Table\\UsersTable</title>
<polygon fill="none" stroke="#000000" points="796.2503,-802 719.2503,-802 719.2503,-766 796.2503,-766 796.2503,-802"/>
<text text-anchor="middle" x="757.7503" y="-781.2" font-family="Courier,monospace" font-size="11.00" fill="#000000">UsersTable</text>
</g>
<!-- \\App\\Model\\Table\\UsersTable&#45;&gt;\\Cake\\ORM\\Table -->
<g id="edge15" class="edge">
<title>\\App\\Model\\Table\\UsersTable&#45;&gt;\\Cake\\ORM\\Table</title>
<path fill="none" stroke="#000000" d="M719.12,-774.1558C708.5849,-769.6636 698.1792,-763.2104 691.2503,-754 580.5755,-606.8822 708.4251,-511.6005 632.2503,-344 606.0695,-286.3969 553.2555,-233.576 520.208,-204.1954"/>
<polygon fill="none" stroke="#000000" points="522.4942,-201.5451 512.665,-197.5908 517.8829,-206.8117 522.4942,-201.5451"/>
</g>
<!-- \\App\\Model\\Entity\\Page -->
<g id="node5" class="node">
<title>\\App\\Model\\Entity\\Page</title>
<polygon fill="none" stroke="#000000" points="784.7503,-722 730.7503,-722 730.7503,-686 784.7503,-686 784.7503,-722"/>
<text text-anchor="middle" x="757.7503" y="-701.2" font-family="Courier,monospace" font-size="11.00" fill="#000000">Page</text>
</g>
<!-- \\Cake\\ORM\\Entity -->
<g id="node18" class="node">
<title>\\Cake\\ORM\\Entity</title>
<ellipse fill="none" stroke="#000000" cx="491.2128" cy="-126" rx="96.3833" ry="18"/>
<text text-anchor="middle" x="491.2128" y="-122.3" font-family="Times,serif" font-size="14.00" fill="#c0c0c0">\Cake\ORM\Entity</text>
</g>
<!-- \\App\\Model\\Entity\\Page&#45;&gt;\\Cake\\ORM\\Entity -->
<g id="edge4" class="edge">
<title>\\App\\Model\\Entity\\Page&#45;&gt;\\Cake\\ORM\\Entity</title>
<path fill="none" stroke="#000000" d="M730.723,-699.7763C716.7346,-696.1407 700.6593,-689.4125 691.2503,-677 549.6762,-490.2338 791.4645,-324.9758 632.2503,-153 622.6421,-142.6217 610.3662,-135.5172 597.0769,-130.7452"/>
<polygon fill="none" stroke="#000000" points="597.8336,-127.3147 587.2447,-127.6692 595.7435,-133.9954 597.8336,-127.3147"/>
</g>
<!-- \\App\\Model\\Entity\\Content -->
<g id="node6" class="node">
<title>\\App\\Model\\Entity\\Content</title>
<polygon fill="none" stroke="#000000" points="787.2503,-668 728.2503,-668 728.2503,-632 787.2503,-632 787.2503,-668"/>
<text text-anchor="middle" x="757.7503" y="-647.2" font-family="Courier,monospace" font-size="11.00" fill="#000000">Content</text>
</g>
<!-- \\App\\Model\\Entity\\Content&#45;&gt;\\Cake\\ORM\\Entity -->
<g id="edge10" class="edge">
<title>\\App\\Model\\Entity\\Content&#45;&gt;\\Cake\\ORM\\Entity</title>
<path fill="none" stroke="#000000" d="M728.0792,-644.9897C714.7846,-641.1949 700.131,-634.5617 691.2503,-623 563.0055,-456.0406 776.2564,-306.5722 632.2503,-153 622.5761,-142.6832 610.2635,-135.6129 596.9569,-130.857"/>
<polygon fill="none" stroke="#000000" points="597.704,-127.4238 587.1155,-127.7896 595.6211,-134.1067 597.704,-127.4238"/>
</g>
<!-- \\App\\Model\\Entity\\User -->
<g id="node7" class="node">
<title>\\App\\Model\\Entity\\User</title>
<polygon fill="none" stroke="#000000" points="784.7503,-614 730.7503,-614 730.7503,-578 784.7503,-578 784.7503,-614"/>
<text text-anchor="middle" x="757.7503" y="-593.2" font-family="Courier,monospace" font-size="11.00" fill="#000000">User</text>
</g>
<!-- \\App\\Model\\Entity\\User&#45;&gt;\\Cake\\ORM\\Entity -->
<g id="edge11" class="edge">
<title>\\App\\Model\\Entity\\User&#45;&gt;\\Cake\\ORM\\Entity</title>
<path fill="none" stroke="#000000" d="M730.5273,-591.5804C716.6595,-587.8929 700.7601,-581.1777 691.2503,-569 576.3151,-421.8218 761.0703,-288.1922 632.2503,-153 622.4938,-142.7609 610.1354,-135.734 596.8074,-130.9983"/>
<polygon fill="none" stroke="#000000" points="597.5425,-127.5619 586.9545,-127.9418 595.4685,-134.2476 597.5425,-127.5619"/>
</g>
<!-- \\App\\Model\\Entity\\MapPoint -->
<g id="node8" class="node">
<title>\\App\\Model\\Entity\\MapPoint</title>
<polygon fill="none" stroke="#000000" points="790.2503,-560 725.2503,-560 725.2503,-524 790.2503,-524 790.2503,-560"/>
<text text-anchor="middle" x="757.7503" y="-539.2" font-family="Courier,monospace" font-size="11.00" fill="#000000">MapPoint</text>
</g>
<!-- \\App\\Model\\Entity\\MapPoint&#45;&gt;\\Cake\\ORM\\Entity -->
<g id="edge14" class="edge">
<title>\\App\\Model\\Entity\\MapPoint&#45;&gt;\\Cake\\ORM\\Entity</title>
<path fill="none" stroke="#000000" d="M725.009,-530.3931C712.5858,-524.3819 699.4665,-515.7783 691.2503,-504 600.747,-374.2589 742.8345,-266.1138 632.2503,-153 622.3633,-142.8869 609.9323,-135.9301 596.5702,-131.2273"/>
<polygon fill="none" stroke="#000000" points="597.2862,-127.7856 586.699,-128.1884 595.2266,-134.4758 597.2862,-127.7856"/>
</g>
<!-- \\App\\Controller\\AppController -->
<g id="node9" class="node">
<title>\\App\\Controller\\AppController</title>
<polygon fill="none" stroke="#000000" points="538.7128,-1099 443.7128,-1099 443.7128,-1063 538.7128,-1063 538.7128,-1099"/>
<text text-anchor="middle" x="491.2128" y="-1078.2" font-family="Courier,monospace" font-size="11.00" fill="#000000">AppController</text>
</g>
<!-- \\Cake\\Controller\\Controller -->
<g id="node20" class="node">
<title>\\Cake\\Controller\\Controller</title>
<ellipse fill="none" stroke="#000000" cx="139.0877" cy="-1081" rx="139.1754" ry="18"/>
<text text-anchor="middle" x="139.0877" y="-1077.3" font-family="Times,serif" font-size="14.00" fill="#c0c0c0">\Cake\Controller\Controller</text>
</g>
<!-- \\App\\Controller\\AppController&#45;&gt;\\Cake\\Controller\\Controller -->
<g id="edge6" class="edge">
<title>\\App\\Controller\\AppController&#45;&gt;\\Cake\\Controller\\Controller</title>
<path fill="none" stroke="#000000" d="M443.3572,-1081C403.4383,-1081 344.3143,-1081 288.7735,-1081"/>
<polygon fill="none" stroke="#000000" points="288.45,-1077.5001 278.4499,-1081 288.4499,-1084.5001 288.45,-1077.5001"/>
</g>
<!-- \\App\\Controller\\PagesController -->
<g id="node10" class="node">
<title>\\App\\Controller\\PagesController</title>
<polygon fill="none" stroke="#000000" points="811.2503,-1126 704.2503,-1126 704.2503,-1090 811.2503,-1090 811.2503,-1126"/>
<text text-anchor="middle" x="757.7503" y="-1105.2" font-family="Courier,monospace" font-size="11.00" fill="#000000">PagesController</text>
</g>
<!-- \\App\\Controller\\PagesController&#45;&gt;\\App\\Controller\\AppController -->
<g id="edge8" class="edge">
<title>\\App\\Controller\\PagesController&#45;&gt;\\App\\Controller\\AppController</title>
<path fill="none" stroke="#000000" d="M704.1331,-1102.5686C659.1903,-1098.016 595.1582,-1091.5296 549.0667,-1086.8605"/>
<polygon fill="none" stroke="#000000" points="549.2347,-1083.3597 538.9328,-1085.834 548.5292,-1090.3241 549.2347,-1083.3597"/>
</g>
<!-- \\App\\Controller\\ErrorController -->
<g id="node11" class="node">
<title>\\App\\Controller\\ErrorController</title>
<polygon fill="none" stroke="#000000" points="811.2503,-1072 704.2503,-1072 704.2503,-1036 811.2503,-1036 811.2503,-1072"/>
<text text-anchor="middle" x="757.7503" y="-1051.2" font-family="Courier,monospace" font-size="11.00" fill="#000000">ErrorController</text>
</g>
<!-- \\App\\Controller\\ErrorController&#45;&gt;\\App\\Controller\\AppController -->
<g id="edge13" class="edge">
<title>\\App\\Controller\\ErrorController&#45;&gt;\\App\\Controller\\AppController</title>
<path fill="none" stroke="#000000" d="M704.1331,-1059.4314C659.1903,-1063.984 595.1582,-1070.4704 549.0667,-1075.1395"/>
<polygon fill="none" stroke="#000000" points="548.5292,-1071.6759 538.9328,-1076.166 549.2347,-1078.6403 548.5292,-1071.6759"/>
</g>
<!-- \\App\\Console\\Installer -->
<g id="node12" class="node">
<title>\\App\\Console\\Installer</title>
<polygon fill="none" stroke="#000000" points="793.2503,-472 722.2503,-472 722.2503,-436 793.2503,-436 793.2503,-472"/>
<text text-anchor="middle" x="757.7503" y="-451.2" font-family="Courier,monospace" font-size="11.00" fill="#000000">Installer</text>
</g>
<!-- \\App\\View\\AppView -->
<g id="node13" class="node">
<title>\\App\\View\\AppView</title>
<polygon fill="none" stroke="#000000" points="520.7128,-392 461.7128,-392 461.7128,-356 520.7128,-356 520.7128,-392"/>
<text text-anchor="middle" x="491.2128" y="-371.2" font-family="Courier,monospace" font-size="11.00" fill="#000000">AppView</text>
</g>
<!-- \\Cake\\View\\View -->
<g id="node21" class="node">
<title>\\Cake\\View\\View</title>
<ellipse fill="none" stroke="#000000" cx="139.0877" cy="-374" rx="89.0842" ry="18"/>
<text text-anchor="middle" x="139.0877" y="-370.3" font-family="Times,serif" font-size="14.00" fill="#c0c0c0">\Cake\View\View</text>
</g>
<!-- \\App\\View\\AppView&#45;&gt;\\Cake\\View\\View -->
<g id="edge7" class="edge">
<title>\\App\\View\\AppView&#45;&gt;\\Cake\\View\\View</title>
<path fill="none" stroke="#000000" d="M461.4943,-374C412.7791,-374 313.8059,-374 238.2972,-374"/>
<polygon fill="none" stroke="#000000" points="238.2753,-370.5001 228.2753,-374 238.2752,-377.5001 238.2753,-370.5001"/>
</g>
<!-- \\App\\View\\AjaxView -->
<g id="node14" class="node">
<title>\\App\\View\\AjaxView</title>
<polygon fill="none" stroke="#000000" points="790.2503,-392 725.2503,-392 725.2503,-356 790.2503,-356 790.2503,-392"/>
<text text-anchor="middle" x="757.7503" y="-371.2" font-family="Courier,monospace" font-size="11.00" fill="#000000">AjaxView</text>
</g>
<!-- \\App\\View\\AjaxView&#45;&gt;\\App\\View\\AppView -->
<g id="edge9" class="edge">
<title>\\App\\View\\AjaxView&#45;&gt;\\App\\View\\AppView</title>
<path fill="none" stroke="#000000" d="M725.0676,-374C676.0665,-374 583.6904,-374 530.8912,-374"/>
<polygon fill="none" stroke="#000000" points="530.8837,-370.5001 520.8837,-374 530.8836,-377.5001 530.8837,-370.5001"/>
</g>
<!-- \\App\\Shell\\ConsoleShell -->
<g id="node15" class="node">
<title>\\App\\Shell\\ConsoleShell</title>
<polygon fill="none" stroke="#000000" points="802.2503,-312 713.2503,-312 713.2503,-276 802.2503,-276 802.2503,-312"/>
<text text-anchor="middle" x="757.7503" y="-291.2" font-family="Courier,monospace" font-size="11.00" fill="#000000">ConsoleShell</text>
</g>
<!-- \\Cake\\Console\\Shell -->
<g id="node22" class="node">
<title>\\Cake\\Console\\Shell</title>
<ellipse fill="none" stroke="#000000" cx="491.2128" cy="-72" rx="103.9815" ry="18"/>
<text text-anchor="middle" x="491.2128" y="-68.3" font-family="Times,serif" font-size="14.00" fill="#c0c0c0">\Cake\Console\Shell</text>
</g>
<!-- \\App\\Shell\\ConsoleShell&#45;&gt;\\Cake\\Console\\Shell -->
<g id="edge12" class="edge">
<title>\\App\\Shell\\ConsoleShell&#45;&gt;\\Cake\\Console\\Shell</title>
<path fill="none" stroke="#000000" d="M713.0235,-285.5237C705.009,-282.3513 697.297,-277.9915 691.2503,-272 633.5438,-214.8207 693.5581,-152.2997 632.2503,-99 622.8975,-90.8689 611.8589,-84.8776 600.1419,-80.5016"/>
<polygon fill="none" stroke="#000000" points="601.2125,-77.1692 590.6189,-77.3284 598.9996,-83.8102 601.2125,-77.1692"/>
</g>
<!-- \\App\\Application -->
<g id="node16" class="node">
<title>\\App\\Application</title>
<polygon fill="none" stroke="#000000" points="799.2503,-258 716.2503,-258 716.2503,-222 799.2503,-222 799.2503,-258"/>
<text text-anchor="middle" x="757.7503" y="-237.2" font-family="Courier,monospace" font-size="11.00" fill="#000000">Application</text>
</g>
<!-- \\Cake\\Http\\BaseApplication -->
<g id="node19" class="node">
<title>\\Cake\\Http\\BaseApplication</title>
<ellipse fill="none" stroke="#000000" cx="491.2128" cy="-18" rx="141.075" ry="18"/>
<text text-anchor="middle" x="491.2128" y="-14.3" font-family="Times,serif" font-size="14.00" fill="#c0c0c0">\Cake\Http\BaseApplication</text>
</g>
<!-- \\App\\Application&#45;&gt;\\Cake\\Http\\BaseApplication -->
<g id="edge5" class="edge">
<title>\\App\\Application&#45;&gt;\\Cake\\Http\\BaseApplication</title>
<path fill="none" stroke="#000000" d="M751.7298,-221.9724C737.6502,-182.8003 698.6415,-89.8426 632.2503,-45 625.2713,-40.2862 617.6783,-36.3463 609.7549,-33.0581"/>
<polygon fill="none" stroke="#000000" points="610.9102,-29.7532 600.3187,-29.4901 608.4345,-36.3007 610.9102,-29.7532"/>
</g>
</g>
</svg>
