<?xml version="1.0" encoding="UTF-8" standalone="no"?>
<!DOCTYPE svg PUBLIC "-//W3C//DTD SVG 1.1//EN"
 "http://www.w3.org/Graphics/SVG/1.1/DTD/svg11.dtd">
<!-- Generated by graphviz version 2.40.1 (20161225.0304)
 -->
<!-- Title: G Pages: 1 -->
<svg width="856pt" height="1226pt"
 viewBox="0.00 0.00 856.25 1226.00" xmlns="http://www.w3.org/2000/svg" xmlns:xlink="http://www.w3.org/1999/xlink">
<g id="graph0" class="graph" transform="scale(1 1) rotate(0) translate(4 1222)">
<title>G</title>
<polygon fill="#ffffff" stroke="transparent" points="-4,4 -4,-1222 852.2503,-1222 852.2503,4 -4,4"/>
<g id="clust1" class="cluster">
<title>cluster_Global</title>
<path fill="none" stroke="#c0c0c0" d="M431.7128,-206C431.7128,-206 828.2503,-206 828.2503,-206 834.2503,-206 840.2503,-212 840.2503,-218 840.2503,-218 840.2503,-1198 840.2503,-1198 840.2503,-1204 834.2503,-1210 828.2503,-1210 828.2503,-1210 431.7128,-1210 431.7128,-1210 425.7128,-1210 419.7128,-1204 419.7128,-1198 419.7128,-1198 419.7128,-218 419.7128,-218 419.7128,-212 425.7128,-206 431.7128,-206"/>
<text text-anchor="middle" x="629.9815" y="-1197.2" font-family="Times,serif" font-size="11.00" fill="#c0c0c0">Global</text>
</g>
<g id="clust2" class="cluster">
<title>cluster_\App</title>
<path fill="none" stroke="#c0c0c0" d="M439.7128,-214C439.7128,-214 820.2503,-214 820.2503,-214 826.2503,-214 832.2503,-220 832.2503,-226 832.2503,-226 832.2503,-1170 832.2503,-1170 832.2503,-1176 826.2503,-1182 820.2503,-1182 820.2503,-1182 439.7128,-1182 439.7128,-1182 433.7128,-1182 427.7128,-1176 427.7128,-1170 427.7128,-1170 427.7128,-226 427.7128,-226 427.7128,-220 433.7128,-214 439.7128,-214"/>
<text text-anchor="middle" x="629.9815" y="-1169.2" font-family="Times,serif" font-size="11.00" fill="#c0c0c0">App</text>
</g>
<g id="clust3" class="cluster">
<title>cluster_\App\Shell</title>
<path fill="none" stroke="#c0c0c0" d="M717.2503,-868C717.2503,-868 798.2503,-868 798.2503,-868 804.2503,-868 810.2503,-874 810.2503,-880 810.2503,-880 810.2503,-928 810.2503,-928 810.2503,-934 804.2503,-940 798.2503,-940 798.2503,-940 717.2503,-940 717.2503,-940 711.2503,-940 705.2503,-934 705.2503,-928 705.2503,-928 705.2503,-880 705.2503,-880 705.2503,-874 711.2503,-868 717.2503,-868"/>
<text text-anchor="middle" x="757.7503" y="-927.2" font-family="Times,serif" font-size="11.00" fill="#c0c0c0">Shell</text>
</g>
<g id="clust4" class="cluster">
<title>cluster_\App\Controller</title>
<path fill="none" stroke="#c0c0c0" d="M447.7128,-1028C447.7128,-1028 807.2503,-1028 807.2503,-1028 813.2503,-1028 819.2503,-1034 819.2503,-1040 819.2503,-1040 819.2503,-1142 819.2503,-1142 819.2503,-1148 813.2503,-1154 807.2503,-1154 807.2503,-1154 447.7128,-1154 447.7128,-1154 441.7128,-1154 435.7128,-1148 435.7128,-1142 435.7128,-1142 435.7128,-1040 435.7128,-1040 435.7128,-1034 441.7128,-1028 447.7128,-1028"/>
<text text-anchor="middle" x="627.4815" y="-1141.2" font-family="Times,serif" font-size="11.00" fill="#c0c0c0">Controller</text>
</g>
<g id="clust5" class="cluster">
<title>cluster_\App\View</title>
<path fill="none" stroke="#c0c0c0" d="M465.7128,-948C465.7128,-948 786.2503,-948 786.2503,-948 792.2503,-948 798.2503,-954 798.2503,-960 798.2503,-960 798.2503,-1008 798.2503,-1008 798.2503,-1014 792.2503,-1020 786.2503,-1020 786.2503,-1020 465.7128,-1020 465.7128,-1020 459.7128,-1020 453.7128,-1014 453.7128,-1008 453.7128,-1008 453.7128,-960 453.7128,-960 453.7128,-954 459.7128,-948 465.7128,-948"/>
<text text-anchor="middle" x="625.9815" y="-1007.2" font-family="Times,serif" font-size="11.00" fill="#c0c0c0">View</text>
</g>
<g id="clust6" class="cluster">
<title>cluster_\App\Model</title>
<path fill="none" stroke="#c0c0c0" d="M703.2503,-348C703.2503,-348 812.2503,-348 812.2503,-348 818.2503,-348 824.2503,-354 824.2503,-360 824.2503,-360 824.2503,-848 824.2503,-848 824.2503,-854 818.2503,-860 812.2503,-860 812.2503,-860 703.2503,-860 703.2503,-860 697.2503,-860 691.2503,-854 691.2503,-848 691.2503,-848 691.2503,-360 691.2503,-360 691.2503,-354 697.2503,-348 703.2503,-348"/>
<text text-anchor="middle" x="757.7503" y="-847.2" font-family="Times,serif" font-size="11.00" fill="#c0c0c0">Model</text>
</g>
<g id="clust7" class="cluster">
<title>cluster_\App\Model\Entity</title>
<path fill="none" stroke="#c0c0c0" d="M729.2503,-598C729.2503,-598 786.2503,-598 786.2503,-598 792.2503,-598 798.2503,-604 798.2503,-610 798.2503,-610 798.2503,-820 798.2503,-820 798.2503,-826 792.2503,-832 786.2503,-832 786.2503,-832 729.2503,-832 729.2503,-832 723.2503,-832 717.2503,-826 717.2503,-820 717.2503,-820 717.2503,-610 717.2503,-610 717.2503,-604 723.2503,-598 729.2503,-598"/>
<text text-anchor="middle" x="757.7503" y="-819.2" font-family="Times,serif" font-size="11.00" fill="#c0c0c0">Entity</text>
</g>
<g id="clust8" class="cluster">
<title>cluster_\App\Model\Table</title>
<path fill="none" stroke="#c0c0c0" d="M711.2503,-356C711.2503,-356 804.2503,-356 804.2503,-356 810.2503,-356 816.2503,-362 816.2503,-368 816.2503,-368 816.2503,-578 816.2503,-578 816.2503,-584 810.2503,-590 804.2503,-590 804.2503,-590 711.2503,-590 711.2503,-590 705.2503,-590 699.2503,-584 699.2503,-578 699.2503,-578 699.2503,-368 699.2503,-368 699.2503,-362 705.2503,-356 711.2503,-356"/>
<text text-anchor="middle" x="757.7503" y="-577.2" font-family="Times,serif" font-size="11.00" fill="#c0c0c0">Table</text>
</g>
<g id="clust9" class="cluster">
<title>cluster_\App\Console</title>
<path fill="none" stroke="#c0c0c0" d="M726.2503,-268C726.2503,-268 789.2503,-268 789.2503,-268 795.2503,-268 801.2503,-274 801.2503,-280 801.2503,-280 801.2503,-328 801.2503,-328 801.2503,-334 795.2503,-340 789.2503,-340 789.2503,-340 726.2503,-340 726.2503,-340 720.2503,-340 714.2503,-334 714.2503,-328 714.2503,-328 714.2503,-280 714.2503,-280 714.2503,-274 720.2503,-268 726.2503,-268"/>
<text text-anchor="middle" x="757.7503" y="-327.2" font-family="Times,serif" font-size="11.00" fill="#c0c0c0">Console</text>
</g>
<!-- \\App\\Shell\\ConsoleShell -->
<g id="node1" class="node">
<title>\\App\\Shell\\ConsoleShell</title>
<polygon fill="none" stroke="#000000" points="802.2503,-912 713.2503,-912 713.2503,-876 802.2503,-876 802.2503,-912"/>
<text text-anchor="middle" x="757.7503" y="-891.2" font-family="Courier,monospace" font-size="11.00" fill="#000000">ConsoleShell</text>
</g>
<!-- \\Cake\\Console\\Shell -->
<g id="node17" class="node">
<title>\\Cake\\Console\\Shell</title>
<ellipse fill="none" stroke="#000000" cx="491.2128" cy="-180" rx="103.9815" ry="18"/>
<text text-anchor="middle" x="491.2128" y="-176.3" font-family="Times,serif" font-size="14.00" fill="#c0c0c0">\Cake\Console\Shell</text>
</g>
<!-- \\App\\Shell\\ConsoleShell&#45;&gt;\\Cake\\Console\\Shell -->
<g id="edge1" class="edge">
<title>\\App\\Shell\\ConsoleShell&#45;&gt;\\Cake\\Console\\Shell</title>
<path fill="none" stroke="#000000" d="M730.5156,-875.8561C716.99,-865.5943 701.4108,-851.6865 691.2503,-836 551.9484,-620.9355 505.4899,-303.8696 494.2207,-208.281"/>
<polygon fill="none" stroke="#000000" points="497.6854,-207.7718 493.0713,-198.2345 490.7307,-208.5676 497.6854,-207.7718"/>
</g>
<!-- \\App\\Controller\\ErrorController -->
<g id="node2" class="node">
<title>\\App\\Controller\\ErrorController</title>
<polygon fill="none" stroke="#000000" points="811.2503,-1126 704.2503,-1126 704.2503,-1090 811.2503,-1090 811.2503,-1126"/>
<text text-anchor="middle" x="757.7503" y="-1105.2" font-family="Courier,monospace" font-size="11.00" fill="#000000">ErrorController</text>
</g>
<!-- \\App\\Controller\\AppController -->
<g id="node4" class="node">
<title>\\App\\Controller\\AppController</title>
<polygon fill="none" stroke="#000000" points="538.7128,-1099 443.7128,-1099 443.7128,-1063 538.7128,-1063 538.7128,-1099"/>
<text text-anchor="middle" x="491.2128" y="-1078.2" font-family="Courier,monospace" font-size="11.00" fill="#000000">AppController</text>
</g>
<!-- \\App\\Controller\\ErrorController&#45;&gt;\\App\\Controller\\AppController -->
<g id="edge2" class="edge">
<title>\\App\\Controller\\ErrorController&#45;&gt;\\App\\Controller\\AppController</title>
<path fill="none" stroke="#000000" d="M704.1331,-1102.5686C659.1903,-1098.016 595.1582,-1091.5296 549.0667,-1086.8605"/>
<polygon fill="none" stroke="#000000" points="549.2347,-1083.3597 538.9328,-1085.834 548.5292,-1090.3241 549.2347,-1083.3597"/>
</g>
<!-- \\App\\Controller\\PagesController -->
<g id="node3" class="node">
<title>\\App\\Controller\\PagesController</title>
<polygon fill="none" stroke="#000000" points="811.2503,-1072 704.2503,-1072 704.2503,-1036 811.2503,-1036 811.2503,-1072"/>
<text text-anchor="middle" x="757.7503" y="-1051.2" font-family="Courier,monospace" font-size="11.00" fill="#000000">PagesController</text>
</g>
<!-- \\App\\Controller\\PagesController&#45;&gt;\\App\\Controller\\AppController -->
<g id="edge3" class="edge">
<title>\\App\\Controller\\PagesController&#45;&gt;\\App\\Controller\\AppController</title>
<path fill="none" stroke="#000000" d="M704.1331,-1059.4314C659.1903,-1063.984 595.1582,-1070.4704 549.0667,-1075.1395"/>
<polygon fill="none" stroke="#000000" points="548.5292,-1071.6759 538.9328,-1076.166 549.2347,-1078.6403 548.5292,-1071.6759"/>
</g>
<!-- \\Cake\\Controller\\Controller -->
<g id="node18" class="node">
<title>\\Cake\\Controller\\Controller</title>
<ellipse fill="none" stroke="#000000" cx="139.0877" cy="-1081" rx="139.1754" ry="18"/>
<text text-anchor="middle" x="139.0877" y="-1077.3" font-family="Times,serif" font-size="14.00" fill="#c0c0c0">\Cake\Controller\Controller</text>
</g>
<!-- \\App\\Controller\\AppController&#45;&gt;\\Cake\\Controller\\Controller -->
<g id="edge4" class="edge">
<title>\\App\\Controller\\AppController&#45;&gt;\\Cake\\Controller\\Controller</title>
<path fill="none" stroke="#000000" d="M443.3572,-1081C403.4383,-1081 344.3143,-1081 288.7735,-1081"/>
<polygon fill="none" stroke="#000000" points="288.45,-1077.5001 278.4499,-1081 288.4499,-1084.5001 288.45,-1077.5001"/>
</g>
<!-- \\App\\View\\AppView -->
<g id="node5" class="node">
<title>\\App\\View\\AppView</title>
<polygon fill="none" stroke="#000000" points="520.7128,-992 461.7128,-992 461.7128,-956 520.7128,-956 520.7128,-992"/>
<text text-anchor="middle" x="491.2128" y="-971.2" font-family="Courier,monospace" font-size="11.00" fill="#000000">AppView</text>
</g>
<!-- \\Cake\\View\\View -->
<g id="node19" class="node">
<title>\\Cake\\View\\View</title>
<ellipse fill="none" stroke="#000000" cx="139.0877" cy="-974" rx="89.0842" ry="18"/>
<text text-anchor="middle" x="139.0877" y="-970.3" font-family="Times,serif" font-size="14.00" fill="#c0c0c0">\Cake\View\View</text>
</g>
<!-- \\App\\View\\AppView&#45;&gt;\\Cake\\View\\View -->
<g id="edge5" class="edge">
<title>\\App\\View\\AppView&#45;&gt;\\Cake\\View\\View</title>
<path fill="none" stroke="#000000" d="M461.4943,-974C412.7791,-974 313.8059,-974 238.2972,-974"/>
<polygon fill="none" stroke="#000000" points="238.2753,-970.5001 228.2753,-974 238.2752,-977.5001 238.2753,-970.5001"/>
</g>
<!-- \\App\\View\\AjaxView -->
<g id="node6" class="node">
<title>\\App\\View\\AjaxView</title>
<polygon fill="none" stroke="#000000" points="790.2503,-992 725.2503,-992 725.2503,-956 790.2503,-956 790.2503,-992"/>
<text text-anchor="middle" x="757.7503" y="-971.2" font-family="Courier,monospace" font-size="11.00" fill="#000000">AjaxView</text>
</g>
<!-- \\App\\View\\AjaxView&#45;&gt;\\App\\View\\AppView -->
<g id="edge6" class="edge">
<title>\\App\\View\\AjaxView&#45;&gt;\\App\\View\\AppView</title>
<path fill="none" stroke="#000000" d="M725.0676,-974C676.0665,-974 583.6904,-974 530.8912,-974"/>
<polygon fill="none" stroke="#000000" points="530.8837,-970.5001 520.8837,-974 530.8836,-977.5001 530.8837,-970.5001"/>
</g>
<!-- \\App\\Model\\Entity\\MapPoint -->
<g id="node7" class="node">
<title>\\App\\Model\\Entity\\MapPoint</title>
<polygon fill="none" stroke="#000000" points="790.2503,-804 725.2503,-804 725.2503,-768 790.2503,-768 790.2503,-804"/>
<text text-anchor="middle" x="757.7503" y="-783.2" font-family="Courier,monospace" font-size="11.00" fill="#000000">MapPoint</text>
</g>
<!-- \\Cake\\ORM\\Entity -->
<g id="node20" class="node">
<title>\\Cake\\ORM\\Entity</title>
<ellipse fill="none" stroke="#000000" cx="491.2128" cy="-126" rx="96.3833" ry="18"/>
<text text-anchor="middle" x="491.2128" y="-122.3" font-family="Times,serif" font-size="14.00" fill="#c0c0c0">\Cake\ORM\Entity</text>
</g>
<!-- \\App\\Model\\Entity\\MapPoint&#45;&gt;\\Cake\\ORM\\Entity -->
<g id="edge7" class="edge">
<title>\\App\\Model\\Entity\\MapPoint&#45;&gt;\\Cake\\ORM\\Entity</title>
<path fill="none" stroke="#000000" d="M725.1863,-780.2836C712.6346,-776.3958 699.3731,-769.8852 691.2503,-759 610.33,-650.5614 723.4188,-252.9766 632.2503,-153 622.7206,-142.5496 610.4884,-135.4049 597.2195,-130.6141"/>
<polygon fill="none" stroke="#000000" points="597.9877,-127.1868 587.3983,-127.5281 595.8892,-133.8649 597.9877,-127.1868"/>
</g>
<!-- \\App\\Model\\Entity\\Content -->
<g id="node8" class="node">
<title>\\App\\Model\\Entity\\Content</title>
<polygon fill="none" stroke="#000000" points="787.2503,-750 728.2503,-750 728.2503,-714 787.2503,-714 787.2503,-750"/>
<text text-anchor="middle" x="757.7503" y="-729.2" font-family="Courier,monospace" font-size="11.00" fill="#000000">Content</text>
</g>
<!-- \\App\\Model\\Entity\\Content&#45;&gt;\\Cake\\ORM\\Entity -->
<g id="edge8" class="edge">
<title>\\App\\Model\\Entity\\Content&#45;&gt;\\Cake\\ORM\\Entity</title>
<path fill="none" stroke="#000000" d="M727.9848,-727.0615C714.6687,-723.2831 700.0243,-716.6429 691.2503,-705 617.0046,-606.478 715.8035,-243.7627 632.2503,-153 622.6714,-142.5946 610.4119,-135.475 597.1302,-130.696"/>
<polygon fill="none" stroke="#000000" points="597.8912,-127.2667 587.3021,-127.6162 595.798,-133.9464 597.8912,-127.2667"/>
</g>
<!-- \\App\\Model\\Entity\\User -->
<g id="node9" class="node">
<title>\\App\\Model\\Entity\\User</title>
<polygon fill="none" stroke="#000000" points="784.7503,-696 730.7503,-696 730.7503,-660 784.7503,-660 784.7503,-696"/>
<text text-anchor="middle" x="757.7503" y="-675.2" font-family="Courier,monospace" font-size="11.00" fill="#000000">User</text>
</g>
<!-- \\App\\Model\\Entity\\User&#45;&gt;\\Cake\\ORM\\Entity -->
<g id="edge9" class="edge">
<title>\\App\\Model\\Entity\\User&#45;&gt;\\Cake\\ORM\\Entity</title>
<path fill="none" stroke="#000000" d="M730.4153,-673.6668C716.5146,-670.0047 700.6197,-663.286 691.2503,-651 556.0961,-473.7731 784.1398,-316.1123 632.2503,-153 622.612,-142.6496 610.3194,-135.5606 597.0222,-130.7959"/>
<polygon fill="none" stroke="#000000" points="597.7746,-127.3642 587.1859,-127.7239 595.6877,-134.0459 597.7746,-127.3642"/>
</g>
<!-- \\App\\Model\\Entity\\Page -->
<g id="node10" class="node">
<title>\\App\\Model\\Entity\\Page</title>
<polygon fill="none" stroke="#000000" points="784.7503,-642 730.7503,-642 730.7503,-606 784.7503,-606 784.7503,-642"/>
<text text-anchor="middle" x="757.7503" y="-621.2" font-family="Courier,monospace" font-size="11.00" fill="#000000">Page</text>
</g>
<!-- \\App\\Model\\Entity\\Page&#45;&gt;\\Cake\\ORM\\Entity -->
<g id="edge10" class="edge">
<title>\\App\\Model\\Entity\\Page&#45;&gt;\\Cake\\ORM\\Entity</title>
<path fill="none" stroke="#000000" d="M730.4231,-618.3447C716.5247,-614.0294 700.6294,-606.5972 691.2503,-594 573.1569,-435.3886 768.0976,-296.698 632.2503,-153 622.5343,-142.7225 610.1984,-135.6742 596.881,-130.9285"/>
<polygon fill="none" stroke="#000000" points="597.622,-127.4937 587.0337,-127.8666 595.5435,-134.178 597.622,-127.4937"/>
</g>
<!-- \\App\\Model\\Table\\UsersTable -->
<g id="node11" class="node">
<title>\\App\\Model\\Table\\UsersTable</title>
<polygon fill="none" stroke="#000000" points="796.2503,-562 719.2503,-562 719.2503,-526 796.2503,-526 796.2503,-562"/>
<text text-anchor="middle" x="757.7503" y="-541.2" font-family="Courier,monospace" font-size="11.00" fill="#000000">UsersTable</text>
</g>
<!-- \\Cake\\ORM\\Table -->
<g id="node21" class="node">
<title>\\Cake\\ORM\\Table</title>
<ellipse fill="none" stroke="#000000" cx="491.2128" cy="-72" rx="92.8835" ry="18"/>
<text text-anchor="middle" x="491.2128" y="-68.3" font-family="Times,serif" font-size="14.00" fill="#c0c0c0">\Cake\ORM\Table</text>
</g>
<!-- \\App\\Model\\Table\\UsersTable&#45;&gt;\\Cake\\ORM\\Table -->
<g id="edge11" class="edge">
<title>\\App\\Model\\Table\\UsersTable&#45;&gt;\\Cake\\ORM\\Table</title>
<path fill="none" stroke="#000000" d="M719.1788,-535.95C708.6456,-531.9348 698.2263,-525.9391 691.2503,-517 575.8226,-369.0898 761.6322,-234.8724 632.2503,-99 621.7438,-87.9664 608.2159,-80.6621 593.7081,-75.9352"/>
<polygon fill="none" stroke="#000000" points="594.6309,-72.559 584.0548,-73.188 592.7148,-79.2916 594.6309,-72.559"/>
</g>
<!-- \\App\\Model\\Table\\MapPointsTable -->
<g id="node12" class="node">
<title>\\App\\Model\\Table\\MapPointsTable</title>
<polygon fill="none" stroke="#000000" points="808.2503,-508 707.2503,-508 707.2503,-472 808.2503,-472 808.2503,-508"/>
<text text-anchor="middle" x="757.7503" y="-487.2" font-family="Courier,monospace" font-size="11.00" fill="#000000">MapPointsTable</text>
</g>
<!-- \\App\\Model\\Table\\MapPointsTable&#45;&gt;\\Cake\\ORM\\Table -->
<g id="edge12" class="edge">
<title>\\App\\Model\\Table\\MapPointsTable&#45;&gt;\\Cake\\ORM\\Table</title>
<path fill="none" stroke="#000000" d="M707.0393,-476.1149C701.0271,-472.6621 695.5216,-468.3593 691.2503,-463 589.1049,-334.8361 746.4767,-216.5244 632.2503,-99 621.8031,-88.2512 608.4835,-81.062 594.217,-76.3534"/>
<polygon fill="none" stroke="#000000" points="594.7904,-72.8765 584.2126,-73.4766 592.8559,-79.6039 594.7904,-72.8765"/>
</g>
<!-- \\App\\Model\\Table\\PagesTable -->
<g id="node13" class="node">
<title>\\App\\Model\\Table\\PagesTable</title>
<polygon fill="none" stroke="#000000" points="796.2503,-454 719.2503,-454 719.2503,-418 796.2503,-418 796.2503,-454"/>
<text text-anchor="middle" x="757.7503" y="-433.2" font-family="Courier,monospace" font-size="11.00" fill="#000000">PagesTable</text>
</g>
<!-- \\App\\Model\\Table\\PagesTable&#45;&gt;\\Cake\\ORM\\Table -->
<g id="edge13" class="edge">
<title>\\App\\Model\\Table\\PagesTable&#45;&gt;\\Cake\\ORM\\Table</title>
<path fill="none" stroke="#000000" d="M719.0959,-427.6055C708.6888,-423.5853 698.3592,-417.6733 691.2503,-409 602.3443,-300.5286 731.3693,-198.2258 632.2503,-99 621.6569,-88.3952 608.2598,-81.2824 593.9603,-76.6064"/>
<polygon fill="none" stroke="#000000" points="594.5165,-73.1254 583.9398,-73.7454 592.5946,-79.8564 594.5165,-73.1254"/>
</g>
<!-- \\App\\Model\\Table\\ContentsTable -->
<g id="node14" class="node">
<title>\\App\\Model\\Table\\ContentsTable</title>
<polygon fill="none" stroke="#000000" points="805.2503,-400 710.2503,-400 710.2503,-364 805.2503,-364 805.2503,-400"/>
<text text-anchor="middle" x="757.7503" y="-379.2" font-family="Courier,monospace" font-size="11.00" fill="#000000">ContentsTable</text>
</g>
<!-- \\App\\Model\\Table\\ContentsTable&#45;&gt;\\Cake\\ORM\\Table -->
<g id="edge14" class="edge">
<title>\\App\\Model\\Table\\ContentsTable&#45;&gt;\\Cake\\ORM\\Table</title>
<path fill="none" stroke="#000000" d="M714.0085,-363.8342C705.4248,-358.5393 697.2378,-351.9754 691.2503,-344 624.006,-254.431 713.293,-176.3076 632.2503,-99 621.2999,-88.5543 607.6126,-81.5443 593.1021,-76.928"/>
<polygon fill="none" stroke="#000000" points="594.0417,-73.5565 583.4682,-74.228 592.1526,-80.2968 594.0417,-73.5565"/>
</g>
<!-- \\App\\Console\\Installer -->
<g id="node15" class="node">
<title>\\App\\Console\\Installer</title>
<polygon fill="none" stroke="#000000" points="793.2503,-312 722.2503,-312 722.2503,-276 793.2503,-276 793.2503,-312"/>
<text text-anchor="middle" x="757.7503" y="-291.2" font-family="Courier,monospace" font-size="11.00" fill="#000000">Installer</text>
</g>
<!-- \\App\\Application -->
<g id="node16" class="node">
<title>\\App\\Application</title>
<polygon fill="none" stroke="#000000" points="799.2503,-258 716.2503,-258 716.2503,-222 799.2503,-222 799.2503,-258"/>
<text text-anchor="middle" x="757.7503" y="-237.2" font-family="Courier,monospace" font-size="11.00" fill="#000000">Application</text>
</g>
<!-- \\Cake\\Http\\BaseApplication -->
<g id="node22" class="node">
<title>\\Cake\\Http\\BaseApplication</title>
<ellipse fill="none" stroke="#000000" cx="491.2128" cy="-18" rx="141.075" ry="18"/>
<text text-anchor="middle" x="491.2128" y="-14.3" font-family="Times,serif" font-size="14.00" fill="#c0c0c0">\Cake\Http\BaseApplication</text>
</g>
<!-- \\App\\Application&#45;&gt;\\Cake\\Http\\BaseApplication -->
<g id="edge15" class="edge">
<title>\\App\\Application&#45;&gt;\\Cake\\Http\\BaseApplication</title>
<path fill="none" stroke="#000000" d="M751.7298,-221.9724C737.6502,-182.8003 698.6415,-89.8426 632.2503,-45 625.2713,-40.2862 617.6783,-36.3463 609.7549,-33.0581"/>
<polygon fill="none" stroke="#000000" points="610.9102,-29.7532 600.3187,-29.4901 608.4345,-36.3007 610.9102,-29.7532"/>
</g>
</g>
</svg>
