<?xml version="1.0" encoding="UTF-8" standalone="no"?>
<!DOCTYPE svg PUBLIC "-//W3C//DTD SVG 1.1//EN"
 "http://www.w3.org/Graphics/SVG/1.1/DTD/svg11.dtd">
<!-- Generated by graphviz version 2.40.1 (20161225.0304)
 -->
<!-- Title: G Pages: 1 -->
<svg width="875pt" height="1388pt"
 viewBox="0.00 0.00 875.25 1388.00" xmlns="http://www.w3.org/2000/svg" xmlns:xlink="http://www.w3.org/1999/xlink">
<g id="graph0" class="graph" transform="scale(1 1) rotate(0) translate(4 1384)">
<title>G</title>
<polygon fill="#ffffff" stroke="transparent" points="-4,4 -4,-1384 871.2503,-1384 871.2503,4 -4,4"/>
<g id="clust1" class="cluster">
<title>cluster_Global</title>
<path fill="none" stroke="#c0c0c0" d="M431.7128,-206C431.7128,-206 847.2503,-206 847.2503,-206 853.2503,-206 859.2503,-212 859.2503,-218 859.2503,-218 859.2503,-1360 859.2503,-1360 859.2503,-1366 853.2503,-1372 847.2503,-1372 847.2503,-1372 431.7128,-1372 431.7128,-1372 425.7128,-1372 419.7128,-1366 419.7128,-1360 419.7128,-1360 419.7128,-218 419.7128,-218 419.7128,-212 425.7128,-206 431.7128,-206"/>
<text text-anchor="middle" x="639.4815" y="-1359.2" font-family="Times,serif" font-size="11.00" fill="#c0c0c0">Global</text>
</g>
<g id="clust2" class="cluster">
<title>cluster_\App</title>
<path fill="none" stroke="#c0c0c0" d="M439.7128,-214C439.7128,-214 839.2503,-214 839.2503,-214 845.2503,-214 851.2503,-220 851.2503,-226 851.2503,-226 851.2503,-1332 851.2503,-1332 851.2503,-1338 845.2503,-1344 839.2503,-1344 839.2503,-1344 439.7128,-1344 439.7128,-1344 433.7128,-1344 427.7128,-1338 427.7128,-1332 427.7128,-1332 427.7128,-226 427.7128,-226 427.7128,-220 433.7128,-214 439.7128,-214"/>
<text text-anchor="middle" x="639.4815" y="-1331.2" font-family="Times,serif" font-size="11.00" fill="#c0c0c0">App</text>
</g>
<g id="clust3" class="cluster">
<title>cluster_\App\Model</title>
<path fill="none" stroke="#c0c0c0" d="M715.2503,-508C715.2503,-508 824.2503,-508 824.2503,-508 830.2503,-508 836.2503,-514 836.2503,-520 836.2503,-520 836.2503,-1008 836.2503,-1008 836.2503,-1014 830.2503,-1020 824.2503,-1020 824.2503,-1020 715.2503,-1020 715.2503,-1020 709.2503,-1020 703.2503,-1014 703.2503,-1008 703.2503,-1008 703.2503,-520 703.2503,-520 703.2503,-514 709.2503,-508 715.2503,-508"/>
<text text-anchor="middle" x="769.7503" y="-1007.2" font-family="Times,serif" font-size="11.00" fill="#c0c0c0">Model</text>
</g>
<g id="clust4" class="cluster">
<title>cluster_\App\Model\Table</title>
<path fill="none" stroke="#c0c0c0" d="M723.2503,-758C723.2503,-758 816.2503,-758 816.2503,-758 822.2503,-758 828.2503,-764 828.2503,-770 828.2503,-770 828.2503,-980 828.2503,-980 828.2503,-986 822.2503,-992 816.2503,-992 816.2503,-992 723.2503,-992 723.2503,-992 717.2503,-992 711.2503,-986 711.2503,-980 711.2503,-980 711.2503,-770 711.2503,-770 711.2503,-764 717.2503,-758 723.2503,-758"/>
<text text-anchor="middle" x="769.7503" y="-979.2" font-family="Times,serif" font-size="11.00" fill="#c0c0c0">Table</text>
</g>
<g id="clust5" class="cluster">
<title>cluster_\App\Model\Entity</title>
<path fill="none" stroke="#c0c0c0" d="M741.2503,-516C741.2503,-516 798.2503,-516 798.2503,-516 804.2503,-516 810.2503,-522 810.2503,-528 810.2503,-528 810.2503,-738 810.2503,-738 810.2503,-744 804.2503,-750 798.2503,-750 798.2503,-750 741.2503,-750 741.2503,-750 735.2503,-750 729.2503,-744 729.2503,-738 729.2503,-738 729.2503,-528 729.2503,-528 729.2503,-522 735.2503,-516 741.2503,-516"/>
<text text-anchor="middle" x="769.7503" y="-737.2" font-family="Times,serif" font-size="11.00" fill="#c0c0c0">Entity</text>
</g>
<g id="clust6" class="cluster">
<title>cluster_\App\Controller</title>
<path fill="none" stroke="#c0c0c0" d="M447.7128,-1028C447.7128,-1028 831.2503,-1028 831.2503,-1028 837.2503,-1028 843.2503,-1034 843.2503,-1040 843.2503,-1040 843.2503,-1304 843.2503,-1304 843.2503,-1310 837.2503,-1316 831.2503,-1316 831.2503,-1316 447.7128,-1316 447.7128,-1316 441.7128,-1316 435.7128,-1310 435.7128,-1304 435.7128,-1304 435.7128,-1040 435.7128,-1040 435.7128,-1034 441.7128,-1028 447.7128,-1028"/>
<text text-anchor="middle" x="639.4815" y="-1303.2" font-family="Times,serif" font-size="11.00" fill="#c0c0c0">Controller</text>
</g>
<g id="clust7" class="cluster">
<title>cluster_\App\Console</title>
<path fill="none" stroke="#c0c0c0" d="M738.2503,-428C738.2503,-428 801.2503,-428 801.2503,-428 807.2503,-428 813.2503,-434 813.2503,-440 813.2503,-440 813.2503,-488 813.2503,-488 813.2503,-494 807.2503,-500 801.2503,-500 801.2503,-500 738.2503,-500 738.2503,-500 732.2503,-500 726.2503,-494 726.2503,-488 726.2503,-488 726.2503,-440 726.2503,-440 726.2503,-434 732.2503,-428 738.2503,-428"/>
<text text-anchor="middle" x="769.7503" y="-487.2" font-family="Times,serif" font-size="11.00" fill="#c0c0c0">Console</text>
</g>
<g id="clust8" class="cluster">
<title>cluster_\App\View</title>
<path fill="none" stroke="#c0c0c0" d="M465.7128,-348C465.7128,-348 798.2503,-348 798.2503,-348 804.2503,-348 810.2503,-354 810.2503,-360 810.2503,-360 810.2503,-408 810.2503,-408 810.2503,-414 804.2503,-420 798.2503,-420 798.2503,-420 465.7128,-420 465.7128,-420 459.7128,-420 453.7128,-414 453.7128,-408 453.7128,-408 453.7128,-360 453.7128,-360 453.7128,-354 459.7128,-348 465.7128,-348"/>
<text text-anchor="middle" x="631.9815" y="-407.2" font-family="Times,serif" font-size="11.00" fill="#c0c0c0">View</text>
</g>
<g id="clust9" class="cluster">
<title>cluster_\App\Shell</title>
<path fill="none" stroke="#c0c0c0" d="M729.2503,-268C729.2503,-268 810.2503,-268 810.2503,-268 816.2503,-268 822.2503,-274 822.2503,-280 822.2503,-280 822.2503,-328 822.2503,-328 822.2503,-334 816.2503,-340 810.2503,-340 810.2503,-340 729.2503,-340 729.2503,-340 723.2503,-340 717.2503,-334 717.2503,-328 717.2503,-328 717.2503,-280 717.2503,-280 717.2503,-274 723.2503,-268 729.2503,-268"/>
<text text-anchor="middle" x="769.7503" y="-327.2" font-family="Times,serif" font-size="11.00" fill="#c0c0c0">Shell</text>
</g>
<!-- \\App\\Model\\Table\\PagesTable -->
<g id="node1" class="node">
<title>\\App\\Model\\Table\\PagesTable</title>
<polygon fill="none" stroke="#000000" points="808.2503,-856 731.2503,-856 731.2503,-820 808.2503,-820 808.2503,-856"/>
<text text-anchor="middle" x="769.7503" y="-835.2" font-family="Courier,monospace" font-size="11.00" fill="#000000">PagesTable</text>
</g>
<!-- \\Cake\\ORM\\Table -->
<g id="node20" class="node">
<title>\\Cake\\ORM\\Table</title>
<ellipse fill="none" stroke="#000000" cx="491.2128" cy="-180" rx="92.8835" ry="18"/>
<text text-anchor="middle" x="491.2128" y="-176.3" font-family="Times,serif" font-size="14.00" fill="#c0c0c0">\Cake\ORM\Table</text>
</g>
<!-- \\App\\Model\\Table\\PagesTable&#45;&gt;\\Cake\\ORM\\Table -->
<g id="edge1" class="edge">
<title>\\App\\Model\\Table\\PagesTable&#45;&gt;\\Cake\\ORM\\Table</title>
<path fill="none" stroke="#000000" d="M731.238,-829.9036C720.7069,-825.8867 710.2738,-819.9018 703.2503,-811 573.21,-646.1832 719.8773,-534.7789 632.2503,-344 605.8406,-286.5015 553.099,-233.6475 520.1278,-204.2321"/>
<polygon fill="none" stroke="#000000" points="522.425,-201.5914 512.603,-197.6191 517.804,-206.8495 522.425,-201.5914"/>
</g>
<!-- \\App\\Model\\Table\\ContentsTable -->
<g id="node2" class="node">
<title>\\App\\Model\\Table\\ContentsTable</title>
<polygon fill="none" stroke="#000000" points="817.2503,-802 722.2503,-802 722.2503,-766 817.2503,-766 817.2503,-802"/>
<text text-anchor="middle" x="769.7503" y="-781.2" font-family="Courier,monospace" font-size="11.00" fill="#000000">ContentsTable</text>
</g>
<!-- \\App\\Model\\Table\\ContentsTable&#45;&gt;\\Cake\\ORM\\Table -->
<g id="edge2" class="edge">
<title>\\App\\Model\\Table\\ContentsTable&#45;&gt;\\Cake\\ORM\\Table</title>
<path fill="none" stroke="#000000" d="M722.0194,-769.5001C714.8541,-765.4862 708.2153,-760.4074 703.2503,-754 589.9754,-607.8169 711.166,-511.2513 632.2503,-344 605.3639,-287.0179 553.1383,-234.2823 520.3367,-204.7033"/>
<polygon fill="none" stroke="#000000" points="522.2444,-201.7165 512.443,-197.6936 517.5964,-206.9507 522.2444,-201.7165"/>
</g>
<!-- \\App\\Model\\Table\\MapPointsTable -->
<g id="node3" class="node">
<title>\\App\\Model\\Table\\MapPointsTable</title>
<polygon fill="none" stroke="#000000" points="820.2503,-964 719.2503,-964 719.2503,-928 820.2503,-928 820.2503,-964"/>
<text text-anchor="middle" x="769.7503" y="-943.2" font-family="Courier,monospace" font-size="11.00" fill="#000000">MapPointsTable</text>
</g>
<!-- \\App\\Model\\Table\\MapPointsTable&#45;&gt;\\Cake\\ORM\\Table -->
<g id="edge3" class="edge">
<title>\\App\\Model\\Table\\MapPointsTable&#45;&gt;\\Cake\\ORM\\Table</title>
<path fill="none" stroke="#000000" d="M719.1773,-932.4513C713.0652,-928.9452 707.4953,-924.5381 703.2503,-919 546.6012,-714.634 736.4375,-579.477 632.2503,-344 606.6488,-286.1371 553.6515,-233.3984 520.4111,-204.1044"/>
<polygon fill="none" stroke="#000000" points="522.669,-201.4297 512.8218,-197.5205 518.0819,-206.7173 522.669,-201.4297"/>
</g>
<!-- \\App\\Model\\Table\\UsersTable -->
<g id="node4" class="node">
<title>\\App\\Model\\Table\\UsersTable</title>
<polygon fill="none" stroke="#000000" points="808.2503,-910 731.2503,-910 731.2503,-874 808.2503,-874 808.2503,-910"/>
<text text-anchor="middle" x="769.7503" y="-889.2" font-family="Courier,monospace" font-size="11.00" fill="#000000">UsersTable</text>
</g>
<!-- \\App\\Model\\Table\\UsersTable&#45;&gt;\\Cake\\ORM\\Table -->
<g id="edge18" class="edge">
<title>\\App\\Model\\Table\\UsersTable&#45;&gt;\\Cake\\ORM\\Table</title>
<path fill="none" stroke="#000000" d="M731.1521,-883.9708C720.6181,-879.9562 710.2049,-873.9558 703.2503,-865 559.916,-680.4221 728.1504,-557.1124 632.2503,-344 606.2851,-286.2994 553.4029,-233.5094 520.2836,-204.1613"/>
<polygon fill="none" stroke="#000000" points="522.5593,-201.5019 512.7233,-197.5644 517.9571,-206.7763 522.5593,-201.5019"/>
</g>
<!-- \\App\\Model\\Entity\\Page -->
<g id="node5" class="node">
<title>\\App\\Model\\Entity\\Page</title>
<polygon fill="none" stroke="#000000" points="796.7503,-614 742.7503,-614 742.7503,-578 796.7503,-578 796.7503,-614"/>
<text text-anchor="middle" x="769.7503" y="-593.2" font-family="Courier,monospace" font-size="11.00" fill="#000000">Page</text>
</g>
<!-- \\Cake\\ORM\\Entity -->
<g id="node21" class="node">
<title>\\Cake\\ORM\\Entity</title>
<ellipse fill="none" stroke="#000000" cx="491.2128" cy="-126" rx="96.3833" ry="18"/>
<text text-anchor="middle" x="491.2128" y="-122.3" font-family="Times,serif" font-size="14.00" fill="#c0c0c0">\Cake\ORM\Entity</text>
</g>
<!-- \\App\\Model\\Entity\\Page&#45;&gt;\\Cake\\ORM\\Entity -->
<g id="edge4" class="edge">
<title>\\App\\Model\\Entity\\Page&#45;&gt;\\Cake\\ORM\\Entity</title>
<path fill="none" stroke="#000000" d="M742.6633,-591.4726C728.8353,-587.7536 712.9306,-581.0426 703.2503,-569 585.7388,-422.8128 763.537,-286.9532 632.2503,-153 622.4209,-142.9709 610.0888,-136.0481 596.8314,-131.3501"/>
<polygon fill="none" stroke="#000000" points="597.625,-127.9318 587.0369,-128.3099 595.5498,-134.6171 597.625,-127.9318"/>
</g>
<!-- \\App\\Model\\Entity\\Content -->
<g id="node6" class="node">
<title>\\App\\Model\\Entity\\Content</title>
<polygon fill="none" stroke="#000000" points="799.2503,-560 740.2503,-560 740.2503,-524 799.2503,-524 799.2503,-560"/>
<text text-anchor="middle" x="769.7503" y="-539.2" font-family="Courier,monospace" font-size="11.00" fill="#000000">Content</text>
</g>
<!-- \\App\\Model\\Entity\\Content&#45;&gt;\\Cake\\ORM\\Entity -->
<g id="edge11" class="edge">
<title>\\App\\Model\\Entity\\Content&#45;&gt;\\Cake\\ORM\\Entity</title>
<path fill="none" stroke="#000000" d="M739.9425,-531.5541C726.7837,-525.4777 712.283,-516.5033 703.2503,-504 610.0467,-374.9851 745.3788,-264.954 632.2503,-153 622.2689,-143.1222 609.8517,-136.2841 596.554,-131.6262"/>
<polygon fill="none" stroke="#000000" points="597.3248,-128.2016 586.7377,-128.6076 595.2672,-134.8924 597.3248,-128.2016"/>
</g>
<!-- \\App\\Model\\Entity\\User -->
<g id="node7" class="node">
<title>\\App\\Model\\Entity\\User</title>
<polygon fill="none" stroke="#000000" points="796.7503,-722 742.7503,-722 742.7503,-686 796.7503,-686 796.7503,-722"/>
<text text-anchor="middle" x="769.7503" y="-701.2" font-family="Courier,monospace" font-size="11.00" fill="#000000">User</text>
</g>
<!-- \\App\\Model\\Entity\\User&#45;&gt;\\Cake\\ORM\\Entity -->
<g id="edge12" class="edge">
<title>\\App\\Model\\Entity\\User&#45;&gt;\\Cake\\ORM\\Entity</title>
<path fill="none" stroke="#000000" d="M742.4971,-699.6039C728.6204,-695.9233 712.7223,-689.2071 703.2503,-677 559.1768,-491.3234 793.845,-323.6462 632.2503,-153 622.5257,-142.7307 610.185,-135.6869 596.8653,-130.9433"/>
<polygon fill="none" stroke="#000000" points="597.605,-127.5082 587.0168,-127.8826 595.5275,-134.1928 597.605,-127.5082"/>
</g>
<!-- \\App\\Model\\Entity\\MapPoint -->
<g id="node8" class="node">
<title>\\App\\Model\\Entity\\MapPoint</title>
<polygon fill="none" stroke="#000000" points="802.2503,-668 737.2503,-668 737.2503,-632 802.2503,-632 802.2503,-668"/>
<text text-anchor="middle" x="769.7503" y="-647.2" font-family="Courier,monospace" font-size="11.00" fill="#000000">MapPoint</text>
</g>
<!-- \\App\\Model\\Entity\\MapPoint&#45;&gt;\\Cake\\ORM\\Entity -->
<g id="edge17" class="edge">
<title>\\App\\Model\\Entity\\MapPoint&#45;&gt;\\Cake\\ORM\\Entity</title>
<path fill="none" stroke="#000000" d="M737.1237,-643.9589C724.7182,-640.0256 711.5809,-633.5688 703.2503,-623 572.4721,-457.0862 778.675,-305.2831 632.2503,-153 622.4476,-142.8052 610.0635,-135.8028 596.7234,-131.0787"/>
<polygon fill="none" stroke="#000000" points="597.4518,-127.6404 586.8641,-128.0284 595.3828,-134.3277 597.4518,-127.6404"/>
</g>
<!-- \\App\\Controller\\AppController -->
<g id="node9" class="node">
<title>\\App\\Controller\\AppController</title>
<polygon fill="none" stroke="#000000" points="538.7128,-1180 443.7128,-1180 443.7128,-1144 538.7128,-1144 538.7128,-1180"/>
<text text-anchor="middle" x="491.2128" y="-1159.2" font-family="Courier,monospace" font-size="11.00" fill="#000000">AppController</text>
</g>
<!-- \\Cake\\Controller\\Controller -->
<g id="node23" class="node">
<title>\\Cake\\Controller\\Controller</title>
<ellipse fill="none" stroke="#000000" cx="139.0877" cy="-1162" rx="139.1754" ry="18"/>
<text text-anchor="middle" x="139.0877" y="-1158.3" font-family="Times,serif" font-size="14.00" fill="#c0c0c0">\Cake\Controller\Controller</text>
</g>
<!-- \\App\\Controller\\AppController&#45;&gt;\\Cake\\Controller\\Controller -->
<g id="edge6" class="edge">
<title>\\App\\Controller\\AppController&#45;&gt;\\Cake\\Controller\\Controller</title>
<path fill="none" stroke="#000000" d="M443.3572,-1162C403.4383,-1162 344.3143,-1162 288.7735,-1162"/>
<polygon fill="none" stroke="#000000" points="288.45,-1158.5001 278.4499,-1162 288.4499,-1165.5001 288.45,-1158.5001"/>
</g>
<!-- \\App\\Controller\\PagesController -->
<g id="node10" class="node">
<title>\\App\\Controller\\PagesController</title>
<polygon fill="none" stroke="#000000" points="823.2503,-1072 716.2503,-1072 716.2503,-1036 823.2503,-1036 823.2503,-1072"/>
<text text-anchor="middle" x="769.7503" y="-1051.2" font-family="Courier,monospace" font-size="11.00" fill="#000000">PagesController</text>
</g>
<!-- \\App\\Controller\\PagesController&#45;&gt;\\App\\Controller\\AppController -->
<g id="edge8" class="edge">
<title>\\App\\Controller\\PagesController&#45;&gt;\\App\\Controller\\AppController</title>
<path fill="none" stroke="#000000" d="M723.1294,-1072.0768C674.7256,-1090.8448 598.9958,-1120.2083 547.3391,-1140.2376"/>
<polygon fill="none" stroke="#000000" points="546.0442,-1136.9858 537.9858,-1143.8643 548.5748,-1143.5123 546.0442,-1136.9858"/>
</g>
<!-- \\App\\Controller\\AdminController -->
<g id="node11" class="node">
<title>\\App\\Controller\\AdminController</title>
<polygon fill="none" stroke="#000000" points="823.2503,-1288 716.2503,-1288 716.2503,-1252 823.2503,-1252 823.2503,-1288"/>
<text text-anchor="middle" x="769.7503" y="-1267.2" font-family="Courier,monospace" font-size="11.00" fill="#000000">AdminController</text>
</g>
<!-- \\App\\Controller\\AdminController&#45;&gt;\\App\\Controller\\AppController -->
<g id="edge10" class="edge">
<title>\\App\\Controller\\AdminController&#45;&gt;\\App\\Controller\\AppController</title>
<path fill="none" stroke="#000000" d="M723.1294,-1251.9232C674.7256,-1233.1552 598.9958,-1203.7917 547.3391,-1183.7624"/>
<polygon fill="none" stroke="#000000" points="548.5748,-1180.4877 537.9858,-1180.1357 546.0442,-1187.0142 548.5748,-1180.4877"/>
</g>
<!-- \\App\\Controller\\MapPointsController -->
<g id="node12" class="node">
<title>\\App\\Controller\\MapPointsController</title>
<polygon fill="none" stroke="#000000" points="835.2503,-1234 704.2503,-1234 704.2503,-1198 835.2503,-1198 835.2503,-1234"/>
<text text-anchor="middle" x="769.7503" y="-1213.2" font-family="Courier,monospace" font-size="11.00" fill="#000000">MapPointsController</text>
</g>
<!-- \\App\\Controller\\MapPointsController&#45;&gt;\\App\\Controller\\AppController -->
<g id="edge14" class="edge">
<title>\\App\\Controller\\MapPointsController&#45;&gt;\\App\\Controller\\AppController</title>
<path fill="none" stroke="#000000" d="M704.0935,-1203.2711C656.9925,-1194.1397 594.1275,-1181.9521 548.9412,-1173.1918"/>
<polygon fill="none" stroke="#000000" points="549.49,-1169.7331 539.0066,-1171.2658 548.1577,-1176.6051 549.49,-1169.7331"/>
</g>
<!-- \\App\\Controller\\ErrorController -->
<g id="node13" class="node">
<title>\\App\\Controller\\ErrorController</title>
<polygon fill="none" stroke="#000000" points="823.2503,-1180 716.2503,-1180 716.2503,-1144 823.2503,-1144 823.2503,-1180"/>
<text text-anchor="middle" x="769.7503" y="-1159.2" font-family="Courier,monospace" font-size="11.00" fill="#000000">ErrorController</text>
</g>
<!-- \\App\\Controller\\ErrorController&#45;&gt;\\App\\Controller\\AppController -->
<g id="edge15" class="edge">
<title>\\App\\Controller\\ErrorController&#45;&gt;\\App\\Controller\\AppController</title>
<path fill="none" stroke="#000000" d="M716.0455,-1162C668.0795,-1162 598.005,-1162 548.8707,-1162"/>
<polygon fill="none" stroke="#000000" points="548.7194,-1158.5001 538.7194,-1162 548.7193,-1165.5001 548.7194,-1158.5001"/>
</g>
<!-- \\App\\Controller\\UsersController -->
<g id="node14" class="node">
<title>\\App\\Controller\\UsersController</title>
<polygon fill="none" stroke="#000000" points="823.2503,-1126 716.2503,-1126 716.2503,-1090 823.2503,-1090 823.2503,-1126"/>
<text text-anchor="middle" x="769.7503" y="-1105.2" font-family="Courier,monospace" font-size="11.00" fill="#000000">UsersController</text>
</g>
<!-- \\App\\Controller\\UsersController&#45;&gt;\\App\\Controller\\AppController -->
<g id="edge16" class="edge">
<title>\\App\\Controller\\UsersController&#45;&gt;\\App\\Controller\\AppController</title>
<path fill="none" stroke="#000000" d="M716.0455,-1118.4117C667.9791,-1127.7303 597.7117,-1141.3531 548.5626,-1150.8816"/>
<polygon fill="none" stroke="#000000" points="547.8704,-1147.4505 538.7194,-1152.7899 549.2027,-1154.3226 547.8704,-1147.4505"/>
</g>
<!-- \\App\\Console\\Installer -->
<g id="node15" class="node">
<title>\\App\\Console\\Installer</title>
<polygon fill="none" stroke="#000000" points="805.2503,-472 734.2503,-472 734.2503,-436 805.2503,-436 805.2503,-472"/>
<text text-anchor="middle" x="769.7503" y="-451.2" font-family="Courier,monospace" font-size="11.00" fill="#000000">Installer</text>
</g>
<!-- \\App\\View\\AppView -->
<g id="node16" class="node">
<title>\\App\\View\\AppView</title>
<polygon fill="none" stroke="#000000" points="520.7128,-392 461.7128,-392 461.7128,-356 520.7128,-356 520.7128,-392"/>
<text text-anchor="middle" x="491.2128" y="-371.2" font-family="Courier,monospace" font-size="11.00" fill="#000000">AppView</text>
</g>
<!-- \\Cake\\View\\View -->
<g id="node24" class="node">
<title>\\Cake\\View\\View</title>
<ellipse fill="none" stroke="#000000" cx="139.0877" cy="-374" rx="89.0842" ry="18"/>
<text text-anchor="middle" x="139.0877" y="-370.3" font-family="Times,serif" font-size="14.00" fill="#c0c0c0">\Cake\View\View</text>
</g>
<!-- \\App\\View\\AppView&#45;&gt;\\Cake\\View\\View -->
<g id="edge7" class="edge">
<title>\\App\\View\\AppView&#45;&gt;\\Cake\\View\\View</title>
<path fill="none" stroke="#000000" d="M461.4943,-374C412.7791,-374 313.8059,-374 238.2972,-374"/>
<polygon fill="none" stroke="#000000" points="238.2753,-370.5001 228.2753,-374 238.2752,-377.5001 238.2753,-370.5001"/>
</g>
<!-- \\App\\View\\AjaxView -->
<g id="node17" class="node">
<title>\\App\\View\\AjaxView</title>
<polygon fill="none" stroke="#000000" points="802.2503,-392 737.2503,-392 737.2503,-356 802.2503,-356 802.2503,-392"/>
<text text-anchor="middle" x="769.7503" y="-371.2" font-family="Courier,monospace" font-size="11.00" fill="#000000">AjaxView</text>
</g>
<!-- \\App\\View\\AjaxView&#45;&gt;\\App\\View\\AppView -->
<g id="edge9" class="edge">
<title>\\App\\View\\AjaxView&#45;&gt;\\App\\View\\AppView</title>
<path fill="none" stroke="#000000" d="M736.9794,-374C685.6415,-374 586.4129,-374 531.0356,-374"/>
<polygon fill="none" stroke="#000000" points="530.8996,-370.5001 520.8995,-374 530.8995,-377.5001 530.8996,-370.5001"/>
</g>
<!-- \\App\\Shell\\ConsoleShell -->
<g id="node18" class="node">
<title>\\App\\Shell\\ConsoleShell</title>
<polygon fill="none" stroke="#000000" points="814.2503,-312 725.2503,-312 725.2503,-276 814.2503,-276 814.2503,-312"/>
<text text-anchor="middle" x="769.7503" y="-291.2" font-family="Courier,monospace" font-size="11.00" fill="#000000">ConsoleShell</text>
</g>
<!-- \\Cake\\Console\\Shell -->
<g id="node25" class="node">
<title>\\Cake\\Console\\Shell</title>
<ellipse fill="none" stroke="#000000" cx="491.2128" cy="-72" rx="103.9815" ry="18"/>
<text text-anchor="middle" x="491.2128" y="-68.3" font-family="Times,serif" font-size="14.00" fill="#c0c0c0">\Cake\Console\Shell</text>
</g>
<!-- \\App\\Shell\\ConsoleShell&#45;&gt;\\Cake\\Console\\Shell -->
<g id="edge13" class="edge">
<title>\\App\\Shell\\ConsoleShell&#45;&gt;\\Cake\\Console\\Shell</title>
<path fill="none" stroke="#000000" d="M724.963,-285.0928C717.0471,-281.9578 709.3873,-277.7221 703.2503,-272 642.4619,-215.3217 696.6008,-151.5991 632.2503,-99 622.5787,-91.0946 611.2901,-85.2494 599.3881,-80.9608"/>
<polygon fill="none" stroke="#000000" points="600.3221,-77.5846 589.7305,-77.8456 598.1731,-84.2466 600.3221,-77.5846"/>
</g>
<!-- \\App\\Application -->
<g id="node19" class="node">
<title>\\App\\Application</title>
<polygon fill="none" stroke="#000000" points="811.2503,-258 728.2503,-258 728.2503,-222 811.2503,-222 811.2503,-258"/>
<text text-anchor="middle" x="769.7503" y="-237.2" font-family="Courier,monospace" font-size="11.00" fill="#000000">Application</text>
</g>
<!-- \\Cake\\Http\\BaseApplication -->
<g id="node22" class="node">
<title>\\Cake\\Http\\BaseApplication</title>
<ellipse fill="none" stroke="#000000" cx="491.2128" cy="-18" rx="141.075" ry="18"/>
<text text-anchor="middle" x="491.2128" y="-14.3" font-family="Times,serif" font-size="14.00" fill="#c0c0c0">\Cake\Http\BaseApplication</text>
</g>
<!-- \\App\\Application&#45;&gt;\\Cake\\Http\\BaseApplication -->
<g id="edge5" class="edge">
<title>\\App\\Application&#45;&gt;\\Cake\\Http\\BaseApplication</title>
<path fill="none" stroke="#000000" d="M762.6385,-221.9489C746.1843,-182.73 701.5225,-89.6846 632.2503,-45 624.944,-40.287 617.011,-36.3571 608.7575,-33.0843"/>
<polygon fill="none" stroke="#000000" points="609.9133,-29.7805 599.3192,-29.6617 607.527,-36.3611 609.9133,-29.7805"/>
</g>
</g>
</svg>
