<?xml version="1.0" encoding="UTF-8" standalone="no"?>
<!DOCTYPE svg PUBLIC "-//W3C//DTD SVG 1.1//EN"
 "http://www.w3.org/Graphics/SVG/1.1/DTD/svg11.dtd">
<!-- Generated by graphviz version 2.40.1 (20161225.0304)
 -->
<!-- Title: G Pages: 1 -->
<svg width="875pt" height="1388pt"
 viewBox="0.00 0.00 875.25 1388.00" xmlns="http://www.w3.org/2000/svg" xmlns:xlink="http://www.w3.org/1999/xlink">
<g id="graph0" class="graph" transform="scale(1 1) rotate(0) translate(4 1384)">
<title>G</title>
<polygon fill="#ffffff" stroke="transparent" points="-4,4 -4,-1384 871.2503,-1384 871.2503,4 -4,4"/>
<g id="clust1" class="cluster">
<title>cluster_Global</title>
<path fill="none" stroke="#c0c0c0" d="M431.7128,-206C431.7128,-206 847.2503,-206 847.2503,-206 853.2503,-206 859.2503,-212 859.2503,-218 859.2503,-218 859.2503,-1360 859.2503,-1360 859.2503,-1366 853.2503,-1372 847.2503,-1372 847.2503,-1372 431.7128,-1372 431.7128,-1372 425.7128,-1372 419.7128,-1366 419.7128,-1360 419.7128,-1360 419.7128,-218 419.7128,-218 419.7128,-212 425.7128,-206 431.7128,-206"/>
<text text-anchor="middle" x="639.4815" y="-1359.2" font-family="Times,serif" font-size="11.00" fill="#c0c0c0">Global</text>
</g>
<g id="clust2" class="cluster">
<title>cluster_\App</title>
<path fill="none" stroke="#c0c0c0" d="M439.7128,-214C439.7128,-214 839.2503,-214 839.2503,-214 845.2503,-214 851.2503,-220 851.2503,-226 851.2503,-226 851.2503,-1332 851.2503,-1332 851.2503,-1338 845.2503,-1344 839.2503,-1344 839.2503,-1344 439.7128,-1344 439.7128,-1344 433.7128,-1344 427.7128,-1338 427.7128,-1332 427.7128,-1332 427.7128,-226 427.7128,-226 427.7128,-220 433.7128,-214 439.7128,-214"/>
<text text-anchor="middle" x="639.4815" y="-1331.2" font-family="Times,serif" font-size="11.00" fill="#c0c0c0">App</text>
</g>
<g id="clust3" class="cluster">
<title>cluster_\App\Shell</title>
<path fill="none" stroke="#c0c0c0" d="M729.2503,-868C729.2503,-868 810.2503,-868 810.2503,-868 816.2503,-868 822.2503,-874 822.2503,-880 822.2503,-880 822.2503,-928 822.2503,-928 822.2503,-934 816.2503,-940 810.2503,-940 810.2503,-940 729.2503,-940 729.2503,-940 723.2503,-940 717.2503,-934 717.2503,-928 717.2503,-928 717.2503,-880 717.2503,-880 717.2503,-874 723.2503,-868 729.2503,-868"/>
<text text-anchor="middle" x="769.7503" y="-927.2" font-family="Times,serif" font-size="11.00" fill="#c0c0c0">Shell</text>
</g>
<g id="clust4" class="cluster">
<title>cluster_\App\Controller</title>
<path fill="none" stroke="#c0c0c0" d="M447.7128,-1028C447.7128,-1028 831.2503,-1028 831.2503,-1028 837.2503,-1028 843.2503,-1034 843.2503,-1040 843.2503,-1040 843.2503,-1304 843.2503,-1304 843.2503,-1310 837.2503,-1316 831.2503,-1316 831.2503,-1316 447.7128,-1316 447.7128,-1316 441.7128,-1316 435.7128,-1310 435.7128,-1304 435.7128,-1304 435.7128,-1040 435.7128,-1040 435.7128,-1034 441.7128,-1028 447.7128,-1028"/>
<text text-anchor="middle" x="639.4815" y="-1303.2" font-family="Times,serif" font-size="11.00" fill="#c0c0c0">Controller</text>
</g>
<g id="clust5" class="cluster">
<title>cluster_\App\View</title>
<path fill="none" stroke="#c0c0c0" d="M465.7128,-948C465.7128,-948 798.2503,-948 798.2503,-948 804.2503,-948 810.2503,-954 810.2503,-960 810.2503,-960 810.2503,-1008 810.2503,-1008 810.2503,-1014 804.2503,-1020 798.2503,-1020 798.2503,-1020 465.7128,-1020 465.7128,-1020 459.7128,-1020 453.7128,-1014 453.7128,-1008 453.7128,-1008 453.7128,-960 453.7128,-960 453.7128,-954 459.7128,-948 465.7128,-948"/>
<text text-anchor="middle" x="631.9815" y="-1007.2" font-family="Times,serif" font-size="11.00" fill="#c0c0c0">View</text>
</g>
<g id="clust6" class="cluster">
<title>cluster_\App\Model</title>
<path fill="none" stroke="#c0c0c0" d="M715.2503,-348C715.2503,-348 824.2503,-348 824.2503,-348 830.2503,-348 836.2503,-354 836.2503,-360 836.2503,-360 836.2503,-848 836.2503,-848 836.2503,-854 830.2503,-860 824.2503,-860 824.2503,-860 715.2503,-860 715.2503,-860 709.2503,-860 703.2503,-854 703.2503,-848 703.2503,-848 703.2503,-360 703.2503,-360 703.2503,-354 709.2503,-348 715.2503,-348"/>
<text text-anchor="middle" x="769.7503" y="-847.2" font-family="Times,serif" font-size="11.00" fill="#c0c0c0">Model</text>
</g>
<g id="clust7" class="cluster">
<title>cluster_\App\Model\Entity</title>
<path fill="none" stroke="#c0c0c0" d="M741.2503,-598C741.2503,-598 798.2503,-598 798.2503,-598 804.2503,-598 810.2503,-604 810.2503,-610 810.2503,-610 810.2503,-820 810.2503,-820 810.2503,-826 804.2503,-832 798.2503,-832 798.2503,-832 741.2503,-832 741.2503,-832 735.2503,-832 729.2503,-826 729.2503,-820 729.2503,-820 729.2503,-610 729.2503,-610 729.2503,-604 735.2503,-598 741.2503,-598"/>
<text text-anchor="middle" x="769.7503" y="-819.2" font-family="Times,serif" font-size="11.00" fill="#c0c0c0">Entity</text>
</g>
<g id="clust8" class="cluster">
<title>cluster_\App\Model\Table</title>
<path fill="none" stroke="#c0c0c0" d="M723.2503,-356C723.2503,-356 816.2503,-356 816.2503,-356 822.2503,-356 828.2503,-362 828.2503,-368 828.2503,-368 828.2503,-578 828.2503,-578 828.2503,-584 822.2503,-590 816.2503,-590 816.2503,-590 723.2503,-590 723.2503,-590 717.2503,-590 711.2503,-584 711.2503,-578 711.2503,-578 711.2503,-368 711.2503,-368 711.2503,-362 717.2503,-356 723.2503,-356"/>
<text text-anchor="middle" x="769.7503" y="-577.2" font-family="Times,serif" font-size="11.00" fill="#c0c0c0">Table</text>
</g>
<g id="clust9" class="cluster">
<title>cluster_\App\Console</title>
<path fill="none" stroke="#c0c0c0" d="M738.2503,-268C738.2503,-268 801.2503,-268 801.2503,-268 807.2503,-268 813.2503,-274 813.2503,-280 813.2503,-280 813.2503,-328 813.2503,-328 813.2503,-334 807.2503,-340 801.2503,-340 801.2503,-340 738.2503,-340 738.2503,-340 732.2503,-340 726.2503,-334 726.2503,-328 726.2503,-328 726.2503,-280 726.2503,-280 726.2503,-274 732.2503,-268 738.2503,-268"/>
<text text-anchor="middle" x="769.7503" y="-327.2" font-family="Times,serif" font-size="11.00" fill="#c0c0c0">Console</text>
</g>
<!-- \\App\\Shell\\ConsoleShell -->
<g id="node1" class="node">
<title>\\App\\Shell\\ConsoleShell</title>
<polygon fill="none" stroke="#000000" points="814.2503,-912 725.2503,-912 725.2503,-876 814.2503,-876 814.2503,-912"/>
<text text-anchor="middle" x="769.7503" y="-891.2" font-family="Courier,monospace" font-size="11.00" fill="#000000">ConsoleShell</text>
</g>
<!-- \\Cake\\Console\\Shell -->
<g id="node20" class="node">
<title>\\Cake\\Console\\Shell</title>
<ellipse fill="none" stroke="#000000" cx="491.2128" cy="-180" rx="103.9815" ry="18"/>
<text text-anchor="middle" x="491.2128" y="-176.3" font-family="Times,serif" font-size="14.00" fill="#c0c0c0">\Cake\Console\Shell</text>
</g>
<!-- \\App\\Shell\\ConsoleShell&#45;&gt;\\Cake\\Console\\Shell -->
<g id="edge1" class="edge">
<title>\\App\\Shell\\ConsoleShell&#45;&gt;\\Cake\\Console\\Shell</title>
<path fill="none" stroke="#000000" d="M742.6227,-875.7862C729.1264,-865.5052 713.541,-851.6014 703.2503,-836 561.4231,-620.9812 508.2048,-303.8842 494.8454,-208.2845"/>
<polygon fill="none" stroke="#000000" points="498.2944,-207.6724 493.4756,-198.2368 491.3585,-208.618 498.2944,-207.6724"/>
</g>
<!-- \\App\\Controller\\ErrorController -->
<g id="node2" class="node">
<title>\\App\\Controller\\ErrorController</title>
<polygon fill="none" stroke="#000000" points="823.2503,-1288 716.2503,-1288 716.2503,-1252 823.2503,-1252 823.2503,-1288"/>
<text text-anchor="middle" x="769.7503" y="-1267.2" font-family="Courier,monospace" font-size="11.00" fill="#000000">ErrorController</text>
</g>
<!-- \\App\\Controller\\AppController -->
<g id="node6" class="node">
<title>\\App\\Controller\\AppController</title>
<polygon fill="none" stroke="#000000" points="538.7128,-1180 443.7128,-1180 443.7128,-1144 538.7128,-1144 538.7128,-1180"/>
<text text-anchor="middle" x="491.2128" y="-1159.2" font-family="Courier,monospace" font-size="11.00" fill="#000000">AppController</text>
</g>
<!-- \\App\\Controller\\ErrorController&#45;&gt;\\App\\Controller\\AppController -->
<g id="edge2" class="edge">
<title>\\App\\Controller\\ErrorController&#45;&gt;\\App\\Controller\\AppController</title>
<path fill="none" stroke="#000000" d="M723.1294,-1251.9232C674.7256,-1233.1552 598.9958,-1203.7917 547.3391,-1183.7624"/>
<polygon fill="none" stroke="#000000" points="548.5748,-1180.4877 537.9858,-1180.1357 546.0442,-1187.0142 548.5748,-1180.4877"/>
</g>
<!-- \\App\\Controller\\PagesController -->
<g id="node3" class="node">
<title>\\App\\Controller\\PagesController</title>
<polygon fill="none" stroke="#000000" points="823.2503,-1234 716.2503,-1234 716.2503,-1198 823.2503,-1198 823.2503,-1234"/>
<text text-anchor="middle" x="769.7503" y="-1213.2" font-family="Courier,monospace" font-size="11.00" fill="#000000">PagesController</text>
</g>
<!-- \\App\\Controller\\PagesController&#45;&gt;\\App\\Controller\\AppController -->
<g id="edge3" class="edge">
<title>\\App\\Controller\\PagesController&#45;&gt;\\App\\Controller\\AppController</title>
<path fill="none" stroke="#000000" d="M716.0455,-1205.5883C667.9791,-1196.2697 597.7117,-1182.6469 548.5626,-1173.1184"/>
<polygon fill="none" stroke="#000000" points="549.2027,-1169.6774 538.7194,-1171.2101 547.8704,-1176.5495 549.2027,-1169.6774"/>
</g>
<!-- \\App\\Controller\\UsersController -->
<g id="node4" class="node">
<title>\\App\\Controller\\UsersController</title>
<polygon fill="none" stroke="#000000" points="823.2503,-1180 716.2503,-1180 716.2503,-1144 823.2503,-1144 823.2503,-1180"/>
<text text-anchor="middle" x="769.7503" y="-1159.2" font-family="Courier,monospace" font-size="11.00" fill="#000000">UsersController</text>
</g>
<!-- \\App\\Controller\\UsersController&#45;&gt;\\App\\Controller\\AppController -->
<g id="edge4" class="edge">
<title>\\App\\Controller\\UsersController&#45;&gt;\\App\\Controller\\AppController</title>
<path fill="none" stroke="#000000" d="M716.0455,-1162C668.0795,-1162 598.005,-1162 548.8707,-1162"/>
<polygon fill="none" stroke="#000000" points="548.7194,-1158.5001 538.7194,-1162 548.7193,-1165.5001 548.7194,-1158.5001"/>
</g>
<!-- \\App\\Controller\\MapPointsController -->
<g id="node5" class="node">
<title>\\App\\Controller\\MapPointsController</title>
<polygon fill="none" stroke="#000000" points="835.2503,-1126 704.2503,-1126 704.2503,-1090 835.2503,-1090 835.2503,-1126"/>
<text text-anchor="middle" x="769.7503" y="-1105.2" font-family="Courier,monospace" font-size="11.00" fill="#000000">MapPointsController</text>
</g>
<!-- \\App\\Controller\\MapPointsController&#45;&gt;\\App\\Controller\\AppController -->
<g id="edge5" class="edge">
<title>\\App\\Controller\\MapPointsController&#45;&gt;\\App\\Controller\\AppController</title>
<path fill="none" stroke="#000000" d="M704.0935,-1120.7289C656.9925,-1129.8603 594.1275,-1142.0479 548.9412,-1150.8082"/>
<polygon fill="none" stroke="#000000" points="548.1577,-1147.3949 539.0066,-1152.7342 549.49,-1154.2669 548.1577,-1147.3949"/>
</g>
<!-- \\Cake\\Controller\\Controller -->
<g id="node21" class="node">
<title>\\Cake\\Controller\\Controller</title>
<ellipse fill="none" stroke="#000000" cx="139.0877" cy="-1162" rx="139.1754" ry="18"/>
<text text-anchor="middle" x="139.0877" y="-1158.3" font-family="Times,serif" font-size="14.00" fill="#c0c0c0">\Cake\Controller\Controller</text>
</g>
<!-- \\App\\Controller\\AppController&#45;&gt;\\Cake\\Controller\\Controller -->
<g id="edge6" class="edge">
<title>\\App\\Controller\\AppController&#45;&gt;\\Cake\\Controller\\Controller</title>
<path fill="none" stroke="#000000" d="M443.3572,-1162C403.4383,-1162 344.3143,-1162 288.7735,-1162"/>
<polygon fill="none" stroke="#000000" points="288.45,-1158.5001 278.4499,-1162 288.4499,-1165.5001 288.45,-1158.5001"/>
</g>
<!-- \\App\\Controller\\AdminController -->
<g id="node7" class="node">
<title>\\App\\Controller\\AdminController</title>
<polygon fill="none" stroke="#000000" points="823.2503,-1072 716.2503,-1072 716.2503,-1036 823.2503,-1036 823.2503,-1072"/>
<text text-anchor="middle" x="769.7503" y="-1051.2" font-family="Courier,monospace" font-size="11.00" fill="#000000">AdminController</text>
</g>
<!-- \\App\\Controller\\AdminController&#45;&gt;\\App\\Controller\\AppController -->
<g id="edge7" class="edge">
<title>\\App\\Controller\\AdminController&#45;&gt;\\App\\Controller\\AppController</title>
<path fill="none" stroke="#000000" d="M723.1294,-1072.0768C674.7256,-1090.8448 598.9958,-1120.2083 547.3391,-1140.2376"/>
<polygon fill="none" stroke="#000000" points="546.0442,-1136.9858 537.9858,-1143.8643 548.5748,-1143.5123 546.0442,-1136.9858"/>
</g>
<!-- \\App\\View\\AppView -->
<g id="node8" class="node">
<title>\\App\\View\\AppView</title>
<polygon fill="none" stroke="#000000" points="520.7128,-992 461.7128,-992 461.7128,-956 520.7128,-956 520.7128,-992"/>
<text text-anchor="middle" x="491.2128" y="-971.2" font-family="Courier,monospace" font-size="11.00" fill="#000000">AppView</text>
</g>
<!-- \\Cake\\View\\View -->
<g id="node22" class="node">
<title>\\Cake\\View\\View</title>
<ellipse fill="none" stroke="#000000" cx="139.0877" cy="-974" rx="89.0842" ry="18"/>
<text text-anchor="middle" x="139.0877" y="-970.3" font-family="Times,serif" font-size="14.00" fill="#c0c0c0">\Cake\View\View</text>
</g>
<!-- \\App\\View\\AppView&#45;&gt;\\Cake\\View\\View -->
<g id="edge8" class="edge">
<title>\\App\\View\\AppView&#45;&gt;\\Cake\\View\\View</title>
<path fill="none" stroke="#000000" d="M461.4943,-974C412.7791,-974 313.8059,-974 238.2972,-974"/>
<polygon fill="none" stroke="#000000" points="238.2753,-970.5001 228.2753,-974 238.2752,-977.5001 238.2753,-970.5001"/>
</g>
<!-- \\App\\View\\AjaxView -->
<g id="node9" class="node">
<title>\\App\\View\\AjaxView</title>
<polygon fill="none" stroke="#000000" points="802.2503,-992 737.2503,-992 737.2503,-956 802.2503,-956 802.2503,-992"/>
<text text-anchor="middle" x="769.7503" y="-971.2" font-family="Courier,monospace" font-size="11.00" fill="#000000">AjaxView</text>
</g>
<!-- \\App\\View\\AjaxView&#45;&gt;\\App\\View\\AppView -->
<g id="edge9" class="edge">
<title>\\App\\View\\AjaxView&#45;&gt;\\App\\View\\AppView</title>
<path fill="none" stroke="#000000" d="M736.9794,-974C685.6415,-974 586.4129,-974 531.0356,-974"/>
<polygon fill="none" stroke="#000000" points="530.8996,-970.5001 520.8995,-974 530.8995,-977.5001 530.8996,-970.5001"/>
</g>
<!-- \\App\\Model\\Entity\\MapPoint -->
<g id="node10" class="node">
<title>\\App\\Model\\Entity\\MapPoint</title>
<polygon fill="none" stroke="#000000" points="802.2503,-804 737.2503,-804 737.2503,-768 802.2503,-768 802.2503,-804"/>
<text text-anchor="middle" x="769.7503" y="-783.2" font-family="Courier,monospace" font-size="11.00" fill="#000000">MapPoint</text>
</g>
<!-- \\Cake\\ORM\\Entity -->
<g id="node23" class="node">
<title>\\Cake\\ORM\\Entity</title>
<ellipse fill="none" stroke="#000000" cx="491.2128" cy="-126" rx="96.3833" ry="18"/>
<text text-anchor="middle" x="491.2128" y="-122.3" font-family="Times,serif" font-size="14.00" fill="#c0c0c0">\Cake\ORM\Entity</text>
</g>
<!-- \\App\\Model\\Entity\\MapPoint&#45;&gt;\\Cake\\ORM\\Entity -->
<g id="edge10" class="edge">
<title>\\App\\Model\\Entity\\MapPoint&#45;&gt;\\Cake\\ORM\\Entity</title>
<path fill="none" stroke="#000000" d="M736.9462,-780.0965C724.5134,-776.1843 711.4038,-769.706 703.2503,-759 538.9502,-543.2648 816.923,-351.5754 632.2503,-153 622.6187,-142.6434 610.3299,-135.5509 597.0344,-130.7846"/>
<polygon fill="none" stroke="#000000" points="597.7877,-127.3532 587.199,-127.7116 595.7002,-134.0346 597.7877,-127.3532"/>
</g>
<!-- \\App\\Model\\Entity\\Content -->
<g id="node11" class="node">
<title>\\App\\Model\\Entity\\Content</title>
<polygon fill="none" stroke="#000000" points="799.2503,-750 740.2503,-750 740.2503,-714 799.2503,-714 799.2503,-750"/>
<text text-anchor="middle" x="769.7503" y="-729.2" font-family="Courier,monospace" font-size="11.00" fill="#000000">Content</text>
</g>
<!-- \\App\\Model\\Entity\\Content&#45;&gt;\\Cake\\ORM\\Entity -->
<g id="edge11" class="edge">
<title>\\App\\Model\\Entity\\Content&#45;&gt;\\Cake\\ORM\\Entity</title>
<path fill="none" stroke="#000000" d="M740.0948,-726.9777C726.8037,-723.1802 712.1486,-716.5481 703.2503,-705 552.2745,-509.0651 801.7205,-333.1778 632.2503,-153 622.5604,-142.6979 610.2391,-135.6358 596.9284,-130.8837"/>
<polygon fill="none" stroke="#000000" points="597.6733,-127.45 587.0848,-127.8184 595.592,-134.1334 597.6733,-127.45"/>
</g>
<!-- \\App\\Model\\Entity\\User -->
<g id="node12" class="node">
<title>\\App\\Model\\Entity\\User</title>
<polygon fill="none" stroke="#000000" points="796.7503,-696 742.7503,-696 742.7503,-660 796.7503,-660 796.7503,-696"/>
<text text-anchor="middle" x="769.7503" y="-675.2" font-family="Courier,monospace" font-size="11.00" fill="#000000">User</text>
</g>
<!-- \\App\\Model\\Entity\\User&#45;&gt;\\Cake\\ORM\\Entity -->
<g id="edge12" class="edge">
<title>\\App\\Model\\Entity\\User&#45;&gt;\\Cake\\ORM\\Entity</title>
<path fill="none" stroke="#000000" d="M742.5309,-673.5776C728.6641,-669.8893 712.7646,-663.1742 703.2503,-651 565.5812,-474.8426 786.5376,-314.8012 632.2503,-153 622.4901,-142.7645 610.1296,-135.7395 596.8006,-131.0048"/>
<polygon fill="none" stroke="#000000" points="597.5352,-127.5682 586.9472,-127.9488 595.4615,-134.254 597.5352,-127.5682"/>
</g>
<!-- \\App\\Model\\Entity\\Page -->
<g id="node13" class="node">
<title>\\App\\Model\\Entity\\Page</title>
<polygon fill="none" stroke="#000000" points="796.7503,-642 742.7503,-642 742.7503,-606 796.7503,-606 796.7503,-642"/>
<text text-anchor="middle" x="769.7503" y="-621.2" font-family="Courier,monospace" font-size="11.00" fill="#000000">Page</text>
</g>
<!-- \\App\\Model\\Entity\\Page&#45;&gt;\\Cake\\ORM\\Entity -->
<g id="edge13" class="edge">
<title>\\App\\Model\\Entity\\Page&#45;&gt;\\Cake\\ORM\\Entity</title>
<path fill="none" stroke="#000000" d="M742.5562,-618.2442C728.6968,-613.8995 712.7963,-606.4712 703.2503,-594 582.5828,-436.3576 770.5406,-295.4344 632.2503,-153 622.3983,-142.8528 609.9867,-135.877 596.6338,-131.1653"/>
<polygon fill="none" stroke="#000000" points="597.3549,-127.7251 586.7675,-128.1216 595.2914,-134.414 597.3549,-127.7251"/>
</g>
<!-- \\App\\Model\\Table\\UsersTable -->
<g id="node14" class="node">
<title>\\App\\Model\\Table\\UsersTable</title>
<polygon fill="none" stroke="#000000" points="808.2503,-562 731.2503,-562 731.2503,-526 808.2503,-526 808.2503,-562"/>
<text text-anchor="middle" x="769.7503" y="-541.2" font-family="Courier,monospace" font-size="11.00" fill="#000000">UsersTable</text>
</g>
<!-- \\Cake\\ORM\\Table -->
<g id="node24" class="node">
<title>\\Cake\\ORM\\Table</title>
<ellipse fill="none" stroke="#000000" cx="491.2128" cy="-72" rx="92.8835" ry="18"/>
<text text-anchor="middle" x="491.2128" y="-68.3" font-family="Times,serif" font-size="14.00" fill="#c0c0c0">\Cake\ORM\Table</text>
</g>
<!-- \\App\\Model\\Table\\UsersTable&#45;&gt;\\Cake\\ORM\\Table -->
<g id="edge14" class="edge">
<title>\\App\\Model\\Table\\UsersTable&#45;&gt;\\Cake\\ORM\\Table</title>
<path fill="none" stroke="#000000" d="M730.987,-535.6939C720.5768,-531.6761 710.2729,-525.7434 703.2503,-517 585.248,-370.083 764.0969,-233.6313 632.2503,-99 621.7625,-88.2907 608.4214,-81.1226 594.1458,-76.4229"/>
<polygon fill="none" stroke="#000000" points="594.7144,-72.9448 584.1369,-73.5504 592.7834,-79.6732 594.7144,-72.9448"/>
</g>
<!-- \\App\\Model\\Table\\MapPointsTable -->
<g id="node15" class="node">
<title>\\App\\Model\\Table\\MapPointsTable</title>
<polygon fill="none" stroke="#000000" points="820.2503,-508 719.2503,-508 719.2503,-472 820.2503,-472 820.2503,-508"/>
<text text-anchor="middle" x="769.7503" y="-487.2" font-family="Courier,monospace" font-size="11.00" fill="#000000">MapPointsTable</text>
</g>
<!-- \\App\\Model\\Table\\MapPointsTable&#45;&gt;\\Cake\\ORM\\Table -->
<g id="edge15" class="edge">
<title>\\App\\Model\\Table\\MapPointsTable&#45;&gt;\\Cake\\ORM\\Table</title>
<path fill="none" stroke="#000000" d="M719.1966,-475.9875C713.1607,-472.5539 707.6067,-468.2904 703.2503,-463 598.475,-335.7603 749.0033,-215.3467 632.2503,-99 621.6328,-88.4194 608.2228,-81.3195 593.9178,-76.6489"/>
<polygon fill="none" stroke="#000000" points="594.4712,-73.1672 583.8947,-73.7905 592.5515,-79.8988 594.4712,-73.1672"/>
</g>
<!-- \\App\\Model\\Table\\PagesTable -->
<g id="node16" class="node">
<title>\\App\\Model\\Table\\PagesTable</title>
<polygon fill="none" stroke="#000000" points="808.2503,-454 731.2503,-454 731.2503,-418 808.2503,-418 808.2503,-454"/>
<text text-anchor="middle" x="769.7503" y="-433.2" font-family="Courier,monospace" font-size="11.00" fill="#000000">PagesTable</text>
</g>
<!-- \\App\\Model\\Table\\PagesTable&#45;&gt;\\Cake\\ORM\\Table -->
<g id="edge16" class="edge">
<title>\\App\\Model\\Table\\PagesTable&#45;&gt;\\Cake\\ORM\\Table</title>
<path fill="none" stroke="#000000" d="M730.9505,-427.3026C720.6655,-423.2817 710.438,-417.4452 703.2503,-409 611.6396,-301.362 733.9791,-197.1311 632.2503,-99 621.3584,-88.4933 607.7019,-81.4513 593.2042,-76.8215"/>
<polygon fill="none" stroke="#000000" points="594.1504,-73.4519 583.5763,-74.1153 592.2561,-80.1907 594.1504,-73.4519"/>
</g>
<!-- \\App\\Model\\Table\\ContentsTable -->
<g id="node17" class="node">
<title>\\App\\Model\\Table\\ContentsTable</title>
<polygon fill="none" stroke="#000000" points="817.2503,-400 722.2503,-400 722.2503,-364 817.2503,-364 817.2503,-400"/>
<text text-anchor="middle" x="769.7503" y="-379.2" font-family="Courier,monospace" font-size="11.00" fill="#000000">ContentsTable</text>
</g>
<!-- \\App\\Model\\Table\\ContentsTable&#45;&gt;\\Cake\\ORM\\Table -->
<g id="edge17" class="edge">
<title>\\App\\Model\\Table\\ContentsTable&#45;&gt;\\Cake\\ORM\\Table</title>
<path fill="none" stroke="#000000" d="M726.6239,-363.8363C717.9012,-358.5159 709.501,-351.9408 703.2503,-344 633.1291,-254.9182 716.0509,-175.3545 632.2503,-99 621.2453,-88.9728 607.6997,-82.1546 593.3978,-77.5938"/>
<polygon fill="none" stroke="#000000" points="593.9714,-74.1195 583.3975,-74.7853 592.0787,-80.8588 593.9714,-74.1195"/>
</g>
<!-- \\App\\Console\\Installer -->
<g id="node18" class="node">
<title>\\App\\Console\\Installer</title>
<polygon fill="none" stroke="#000000" points="805.2503,-312 734.2503,-312 734.2503,-276 805.2503,-276 805.2503,-312"/>
<text text-anchor="middle" x="769.7503" y="-291.2" font-family="Courier,monospace" font-size="11.00" fill="#000000">Installer</text>
</g>
<!-- \\App\\Application -->
<g id="node19" class="node">
<title>\\App\\Application</title>
<polygon fill="none" stroke="#000000" points="811.2503,-258 728.2503,-258 728.2503,-222 811.2503,-222 811.2503,-258"/>
<text text-anchor="middle" x="769.7503" y="-237.2" font-family="Courier,monospace" font-size="11.00" fill="#000000">Application</text>
</g>
<!-- \\Cake\\Http\\BaseApplication -->
<g id="node25" class="node">
<title>\\Cake\\Http\\BaseApplication</title>
<ellipse fill="none" stroke="#000000" cx="491.2128" cy="-18" rx="141.075" ry="18"/>
<text text-anchor="middle" x="491.2128" y="-14.3" font-family="Times,serif" font-size="14.00" fill="#c0c0c0">\Cake\Http\BaseApplication</text>
</g>
<!-- \\App\\Application&#45;&gt;\\Cake\\Http\\BaseApplication -->
<g id="edge18" class="edge">
<title>\\App\\Application&#45;&gt;\\Cake\\Http\\BaseApplication</title>
<path fill="none" stroke="#000000" d="M762.6385,-221.9489C746.1843,-182.73 701.5225,-89.6846 632.2503,-45 624.944,-40.287 617.011,-36.3571 608.7575,-33.0843"/>
<polygon fill="none" stroke="#000000" points="609.9133,-29.7805 599.3192,-29.6617 607.527,-36.3611 609.9133,-29.7805"/>
</g>
</g>
</svg>
