<?xml version="1.0" encoding="UTF-8" standalone="no"?>
<!DOCTYPE svg PUBLIC "-//W3C//DTD SVG 1.1//EN"
 "http://www.w3.org/Graphics/SVG/1.1/DTD/svg11.dtd">
<!-- Generated by graphviz version 2.40.1 (20161225.0304)
 -->
<!-- Title: G Pages: 1 -->
<svg width="377pt" height="366pt"
 viewBox="0.00 0.00 377.38 366.00" xmlns="http://www.w3.org/2000/svg" xmlns:xlink="http://www.w3.org/1999/xlink">
<g id="graph0" class="graph" transform="scale(1 1) rotate(0) translate(4 362)">
<title>G</title>
<polygon fill="#ffffff" stroke="transparent" points="-4,4 -4,-362 373.3829,-362 373.3829,4 -4,4"/>
<g id="clust1" class="cluster">
<title>cluster_Global</title>
<path fill="none" stroke="#c0c0c0" d="M244.3829,-8C244.3829,-8 349.3829,-8 349.3829,-8 355.3829,-8 361.3829,-14 361.3829,-20 361.3829,-20 361.3829,-338 361.3829,-338 361.3829,-344 355.3829,-350 349.3829,-350 349.3829,-350 244.3829,-350 244.3829,-350 238.3829,-350 232.3829,-344 232.3829,-338 232.3829,-338 232.3829,-20 232.3829,-20 232.3829,-14 238.3829,-8 244.3829,-8"/>
<text text-anchor="middle" x="296.8829" y="-337.2" font-family="Times,serif" font-size="11.00" fill="#c0c0c0">Global</text>
</g>
<g id="clust2" class="cluster">
<title>cluster_\App</title>
<path fill="none" stroke="#c0c0c0" d="M252.3829,-16C252.3829,-16 341.3829,-16 341.3829,-16 347.3829,-16 353.3829,-22 353.3829,-28 353.3829,-28 353.3829,-310 353.3829,-310 353.3829,-316 347.3829,-322 341.3829,-322 341.3829,-322 252.3829,-322 252.3829,-322 246.3829,-322 240.3829,-316 240.3829,-310 240.3829,-310 240.3829,-28 240.3829,-28 240.3829,-22 246.3829,-16 252.3829,-16"/>
<text text-anchor="middle" x="296.8829" y="-309.2" font-family="Times,serif" font-size="11.00" fill="#c0c0c0">App</text>
</g>
<g id="clust3" class="cluster">
<title>cluster_\App\Model</title>
<path fill="none" stroke="#c0c0c0" d="M260.3829,-24C260.3829,-24 333.3829,-24 333.3829,-24 339.3829,-24 345.3829,-30 345.3829,-36 345.3829,-36 345.3829,-282 345.3829,-282 345.3829,-288 339.3829,-294 333.3829,-294 333.3829,-294 260.3829,-294 260.3829,-294 254.3829,-294 248.3829,-288 248.3829,-282 248.3829,-282 248.3829,-36 248.3829,-36 248.3829,-30 254.3829,-24 260.3829,-24"/>
<text text-anchor="middle" x="296.8829" y="-281.2" font-family="Times,serif" font-size="11.00" fill="#c0c0c0">Model</text>
</g>
<g id="clust4" class="cluster">
<title>cluster_\App\Model\Entity</title>
<path fill="none" stroke="#c0c0c0" d="M268.3829,-32C268.3829,-32 325.3829,-32 325.3829,-32 331.3829,-32 337.3829,-38 337.3829,-44 337.3829,-44 337.3829,-254 337.3829,-254 337.3829,-260 331.3829,-266 325.3829,-266 325.3829,-266 268.3829,-266 268.3829,-266 262.3829,-266 256.3829,-260 256.3829,-254 256.3829,-254 256.3829,-44 256.3829,-44 256.3829,-38 262.3829,-32 268.3829,-32"/>
<text text-anchor="middle" x="296.8829" y="-253.2" font-family="Times,serif" font-size="11.00" fill="#c0c0c0">Entity</text>
</g>
<!-- \\App\\Model\\Entity\\Content -->
<g id="node1" class="node">
<title>\\App\\Model\\Entity\\Content</title>
<polygon fill="none" stroke="#000000" points="326.3829,-238 267.3829,-238 267.3829,-202 326.3829,-202 326.3829,-238"/>
<text text-anchor="middle" x="296.8829" y="-217.2" font-family="Courier,monospace" font-size="11.00" fill="#000000">Content</text>
</g>
<!-- \\Cake\\ORM\\Entity -->
<g id="node5" class="node">
<title>\\Cake\\ORM\\Entity</title>
<ellipse fill="none" stroke="#000000" cx="96.1915" cy="-139" rx="96.3833" ry="18"/>
<text text-anchor="middle" x="96.1915" y="-135.3" font-family="Times,serif" font-size="14.00" fill="#c0c0c0">\Cake\ORM\Entity</text>
</g>
<!-- \\App\\Model\\Entity\\Content&#45;&gt;\\Cake\\ORM\\Entity -->
<g id="edge1" class="edge">
<title>\\App\\Model\\Entity\\Content&#45;&gt;\\Cake\\ORM\\Entity</title>
<path fill="none" stroke="#000000" d="M267.2702,-208.0482C235.4066,-195.1879 184.1828,-174.5137 146.0797,-159.1351"/>
<polygon fill="none" stroke="#000000" points="147.2781,-155.8445 136.6949,-155.3474 144.6582,-162.3358 147.2781,-155.8445"/>
</g>
<!-- \\App\\Model\\Entity\\MapPoint -->
<g id="node2" class="node">
<title>\\App\\Model\\Entity\\MapPoint</title>
<polygon fill="none" stroke="#000000" points="329.3829,-184 264.3829,-184 264.3829,-148 329.3829,-148 329.3829,-184"/>
<text text-anchor="middle" x="296.8829" y="-163.2" font-family="Courier,monospace" font-size="11.00" fill="#000000">MapPoint</text>
</g>
<!-- \\App\\Model\\Entity\\MapPoint&#45;&gt;\\Cake\\ORM\\Entity -->
<g id="edge2" class="edge">
<title>\\App\\Model\\Entity\\MapPoint&#45;&gt;\\Cake\\ORM\\Entity</title>
<path fill="none" stroke="#000000" d="M264.1917,-161.6019C242.4327,-158.6745 212.7294,-154.6784 184.3468,-150.86"/>
<polygon fill="none" stroke="#000000" points="184.7552,-147.3835 174.3778,-149.5188 183.8218,-154.321 184.7552,-147.3835"/>
</g>
<!-- \\App\\Model\\Entity\\User -->
<g id="node3" class="node">
<title>\\App\\Model\\Entity\\User</title>
<polygon fill="none" stroke="#000000" points="323.8829,-130 269.8829,-130 269.8829,-94 323.8829,-94 323.8829,-130"/>
<text text-anchor="middle" x="296.8829" y="-109.2" font-family="Courier,monospace" font-size="11.00" fill="#000000">User</text>
</g>
<!-- \\App\\Model\\Entity\\User&#45;&gt;\\Cake\\ORM\\Entity -->
<g id="edge3" class="edge">
<title>\\App\\Model\\Entity\\User&#45;&gt;\\Cake\\ORM\\Entity</title>
<path fill="none" stroke="#000000" d="M269.8168,-115.6413C247.8047,-118.6027 215.4486,-122.9558 184.6154,-127.1039"/>
<polygon fill="none" stroke="#000000" points="184.1173,-123.6393 174.6732,-128.4415 185.0507,-130.5768 184.1173,-123.6393"/>
</g>
<!-- \\App\\Model\\Entity\\Page -->
<g id="node4" class="node">
<title>\\App\\Model\\Entity\\Page</title>
<polygon fill="none" stroke="#000000" points="323.8829,-76 269.8829,-76 269.8829,-40 323.8829,-40 323.8829,-76"/>
<text text-anchor="middle" x="296.8829" y="-55.2" font-family="Courier,monospace" font-size="11.00" fill="#000000">Page</text>
</g>
<!-- \\App\\Model\\Entity\\Page&#45;&gt;\\Cake\\ORM\\Entity -->
<g id="edge4" class="edge">
<title>\\App\\Model\\Entity\\Page&#45;&gt;\\Cake\\ORM\\Entity</title>
<path fill="none" stroke="#000000" d="M269.8168,-68.924C238.254,-81.6629 185.4233,-102.9856 146.3106,-118.7717"/>
<polygon fill="none" stroke="#000000" points="144.6468,-115.6688 136.6836,-122.6572 147.2668,-122.16 144.6468,-115.6688"/>
</g>
</g>
</svg>
